<svg width="67" height="26" viewBox="0 0 67 26" fill="none" xmlns="http://www.w3.org/2000/svg">
<mask id="path-1-outside-1_632_30" maskUnits="userSpaceOnUse" x="-1" y="-1" width="69" height="28" fill="black">
<rect fill="white" x="-1" y="-1" width="69" height="28"/>
<path d="M12.208 25L6.896 15.88H3.376V25H0.464V2.696H7.664C9.34933 2.696 10.768 2.984 11.92 3.56C13.0933 4.136 13.968 4.91467 14.544 5.896C15.12 6.87733 15.408 7.99733 15.408 9.256C15.408 10.792 14.96 12.1467 14.064 13.32C13.1893 14.4933 11.8667 15.272 10.096 15.656L15.696 25H12.208ZM3.376 13.544H7.664C9.24267 13.544 10.4267 13.16 11.216 12.392C12.0053 11.6027 12.4 10.5573 12.4 9.256C12.4 7.93333 12.0053 6.90933 11.216 6.184C10.448 5.45867 9.264 5.096 7.664 5.096H3.376V13.544ZM18.8448 16.168C18.8448 14.376 19.2074 12.808 19.9328 11.464C20.6581 10.0987 21.6501 9.04267 22.9088 8.296C24.1888 7.54933 25.6074 7.176 27.1648 7.176C28.7008 7.176 30.0341 7.50667 31.1648 8.168C32.2954 8.82933 33.1381 9.66133 33.6928 10.664V7.464H36.6368V25H33.6928V21.736C33.1168 22.76 32.2528 23.6133 31.1008 24.296C29.9701 24.9573 28.6474 25.288 27.1328 25.288C25.5754 25.288 24.1674 24.904 22.9088 24.136C21.6501 23.368 20.6581 22.2907 19.9328 20.904C19.2074 19.5173 18.8448 17.9387 18.8448 16.168ZM33.6928 16.2C33.6928 14.8773 33.4261 13.7253 32.8928 12.744C32.3594 11.7627 31.6341 11.016 30.7168 10.504C29.8208 9.97067 28.8288 9.704 27.7408 9.704C26.6528 9.704 25.6608 9.96 24.7648 10.472C23.8688 10.984 23.1541 11.7307 22.6208 12.712C22.0874 13.6933 21.8208 14.8453 21.8208 16.168C21.8208 17.512 22.0874 18.6853 22.6208 19.688C23.1541 20.6693 23.8688 21.4267 24.7648 21.96C25.6608 22.472 26.6528 22.728 27.7408 22.728C28.8288 22.728 29.8208 22.472 30.7168 21.96C31.6341 21.4267 32.3594 20.6693 32.8928 19.688C33.4261 18.6853 33.6928 17.5227 33.6928 16.2ZM48.6938 9.864H45.0138V25H42.1018V9.864H39.8298V7.464H42.1018V6.216C42.1018 4.25333 42.6031 2.824 43.6058 1.928C44.6298 1.01067 46.2618 0.551998 48.5017 0.551998V2.984C47.2218 2.984 46.3151 3.24 45.7818 3.752C45.2698 4.24267 45.0138 5.064 45.0138 6.216V7.464H48.6938V9.864ZM59.225 9.864H55.545V25H52.633V9.864H50.361V7.464H52.633V6.216C52.633 4.25333 53.1343 2.824 54.137 1.928C55.161 1.01067 56.793 0.551998 59.033 0.551998V2.984C57.753 2.984 56.8463 3.24 56.313 3.752C55.801 4.24267 55.545 5.064 55.545 6.216V7.464H59.225V9.864ZM64.1243 4.616C63.5696 4.616 63.1003 4.424 62.7163 4.04C62.3323 3.656 62.1403 3.18667 62.1403 2.632C62.1403 2.07733 62.3323 1.608 62.7163 1.224C63.1003 0.839999 63.5696 0.647999 64.1243 0.647999C64.6576 0.647999 65.1056 0.839999 65.4683 1.224C65.8523 1.608 66.0443 2.07733 66.0443 2.632C66.0443 3.18667 65.8523 3.656 65.4683 4.04C65.1056 4.424 64.6576 4.616 64.1243 4.616ZM65.5323 7.464V25H62.6203V7.464H65.5323Z"/>
</mask>
<path d="M12.208 25L6.896 15.88H3.376V25H0.464V2.696H7.664C9.34933 2.696 10.768 2.984 11.92 3.56C13.0933 4.136 13.968 4.91467 14.544 5.896C15.12 6.87733 15.408 7.99733 15.408 9.256C15.408 10.792 14.96 12.1467 14.064 13.32C13.1893 14.4933 11.8667 15.272 10.096 15.656L15.696 25H12.208ZM3.376 13.544H7.664C9.24267 13.544 10.4267 13.16 11.216 12.392C12.0053 11.6027 12.4 10.5573 12.4 9.256C12.4 7.93333 12.0053 6.90933 11.216 6.184C10.448 5.45867 9.264 5.096 7.664 5.096H3.376V13.544ZM18.8448 16.168C18.8448 14.376 19.2074 12.808 19.9328 11.464C20.6581 10.0987 21.6501 9.04267 22.9088 8.296C24.1888 7.54933 25.6074 7.176 27.1648 7.176C28.7008 7.176 30.0341 7.50667 31.1648 8.168C32.2954 8.82933 33.1381 9.66133 33.6928 10.664V7.464H36.6368V25H33.6928V21.736C33.1168 22.76 32.2528 23.6133 31.1008 24.296C29.9701 24.9573 28.6474 25.288 27.1328 25.288C25.5754 25.288 24.1674 24.904 22.9088 24.136C21.6501 23.368 20.6581 22.2907 19.9328 20.904C19.2074 19.5173 18.8448 17.9387 18.8448 16.168ZM33.6928 16.2C33.6928 14.8773 33.4261 13.7253 32.8928 12.744C32.3594 11.7627 31.6341 11.016 30.7168 10.504C29.8208 9.97067 28.8288 9.704 27.7408 9.704C26.6528 9.704 25.6608 9.96 24.7648 10.472C23.8688 10.984 23.1541 11.7307 22.6208 12.712C22.0874 13.6933 21.8208 14.8453 21.8208 16.168C21.8208 17.512 22.0874 18.6853 22.6208 19.688C23.1541 20.6693 23.8688 21.4267 24.7648 21.96C25.6608 22.472 26.6528 22.728 27.7408 22.728C28.8288 22.728 29.8208 22.472 30.7168 21.96C31.6341 21.4267 32.3594 20.6693 32.8928 19.688C33.4261 18.6853 33.6928 17.5227 33.6928 16.2ZM48.6938 9.864H45.0138V25H42.1018V9.864H39.8298V7.464H42.1018V6.216C42.1018 4.25333 42.6031 2.824 43.6058 1.928C44.6298 1.01067 46.2618 0.551998 48.5017 0.551998V2.984C47.2218 2.984 46.3151 3.24 45.7818 3.752C45.2698 4.24267 45.0138 5.064 45.0138 6.216V7.464H48.6938V9.864ZM59.225 9.864H55.545V25H52.633V9.864H50.361V7.464H52.633V6.216C52.633 4.25333 53.1343 2.824 54.137 1.928C55.161 1.01067 56.793 0.551998 59.033 0.551998V2.984C57.753 2.984 56.8463 3.24 56.313 3.752C55.801 4.24267 55.545 5.064 55.545 6.216V7.464H59.225V9.864ZM64.1243 4.616C63.5696 4.616 63.1003 4.424 62.7163 4.04C62.3323 3.656 62.1403 3.18667 62.1403 2.632C62.1403 2.07733 62.3323 1.608 62.7163 1.224C63.1003 0.839999 63.5696 0.647999 64.1243 0.647999C64.6576 0.647999 65.1056 0.839999 65.4683 1.224C65.8523 1.608 66.0443 2.07733 66.0443 2.632C66.0443 3.18667 65.8523 3.656 65.4683 4.04C65.1056 4.424 64.6576 4.616 64.1243 4.616ZM65.5323 7.464V25H62.6203V7.464H65.5323Z" fill="black"/>
<path d="M12.208 25L11.3439 25.5033L11.6332 26H12.208V25ZM6.896 15.88L7.76011 15.3767L7.47081 14.88H6.896V15.88ZM3.376 15.88V14.88H2.376V15.88H3.376ZM3.376 25V26H4.376V25H3.376ZM0.464 25H-0.536V26H0.464V25ZM0.464 2.696V1.696H-0.536V2.696H0.464ZM11.92 3.56L11.4728 4.45445L11.4793 4.45767L11.92 3.56ZM14.064 13.32L13.2692 12.713L13.2623 12.7223L14.064 13.32ZM10.096 15.656L9.88406 14.6787L8.52155 14.9742L9.23825 16.1701L10.096 15.656ZM15.696 25V26H17.4612L16.5538 24.4859L15.696 25ZM3.376 13.544H2.376V14.544H3.376V13.544ZM11.216 12.392L11.9134 13.1088L11.9231 13.0991L11.216 12.392ZM11.216 6.184L10.5293 6.91108L10.5394 6.92033L11.216 6.184ZM3.376 5.096V4.096H2.376V5.096H3.376ZM13.0721 24.4967L7.76011 15.3767L6.03189 16.3833L11.3439 25.5033L13.0721 24.4967ZM6.896 14.88H3.376V16.88H6.896V14.88ZM2.376 15.88V25H4.376V15.88H2.376ZM3.376 24H0.464V26H3.376V24ZM1.464 25V2.696H-0.536V25H1.464ZM0.464 3.696H7.664V1.696H0.464V3.696ZM7.664 3.696C9.24017 3.696 10.4957 3.96588 11.4728 4.45443L12.3672 2.66557C11.0403 2.00212 9.45849 1.696 7.664 1.696V3.696ZM11.4793 4.45767C12.5036 4.96051 13.2189 5.61395 13.6816 6.4022L15.4064 5.3898C14.7171 4.21538 13.683 3.31149 12.3607 2.66233L11.4793 4.45767ZM13.6816 6.4022C14.1582 7.21414 14.408 8.1559 14.408 9.256H16.408C16.408 7.83876 16.0818 6.54053 15.4064 5.3898L13.6816 6.4022ZM14.408 9.256C14.408 10.5822 14.0264 11.7215 13.2692 12.7131L14.8588 13.9269C15.8936 12.5718 16.408 11.0018 16.408 9.256H14.408ZM13.2623 12.7223C12.564 13.6591 11.4771 14.3332 9.88406 14.6787L10.3079 16.6333C12.2563 16.2108 13.8147 15.3276 14.8657 13.9177L13.2623 12.7223ZM9.23825 16.1701L14.8382 25.5141L16.5538 24.4859L10.9538 15.1419L9.23825 16.1701ZM15.696 24H12.208V26H15.696V24ZM3.376 14.544H7.664V12.544H3.376V14.544ZM7.664 14.544C9.39004 14.544 10.8695 14.1244 11.9134 13.1087L10.5186 11.6753C9.98382 12.1956 9.09529 12.544 7.664 12.544V14.544ZM11.9231 13.0991C12.9311 12.0911 13.4 10.7751 13.4 9.256H11.4C11.4 10.3396 11.0796 11.1142 10.5089 11.6849L11.9231 13.0991ZM13.4 9.256C13.4 7.72383 12.9347 6.40526 11.8926 5.44767L10.5394 6.92033C11.076 7.4134 11.4 8.14284 11.4 9.256H13.4ZM11.9026 5.45699C10.873 4.4846 9.39109 4.096 7.664 4.096V6.096C9.13691 6.096 10.023 6.43273 10.5294 6.91101L11.9026 5.45699ZM7.664 4.096H3.376V6.096H7.664V4.096ZM2.376 5.096V13.544H4.376V5.096H2.376ZM19.9328 11.464L20.8128 11.9389L20.8159 11.9332L19.9328 11.464ZM22.9088 8.296L22.4049 7.4322L22.3985 7.43594L22.9088 8.296ZM31.1648 8.168L30.6599 9.03119L30.6599 9.03119L31.1648 8.168ZM33.6928 10.664L32.8177 11.1481L34.6928 10.664H33.6928ZM33.6928 7.464V6.464H32.6928V7.464H33.6928ZM36.6368 7.464H37.6368V6.464H36.6368V7.464ZM36.6368 25V26H37.6368V25H36.6368ZM33.6928 25H32.6928V26H33.6928V25ZM33.6928 21.736H34.6928V17.9185L32.8212 21.2457L33.6928 21.736ZM31.1008 24.296L31.6056 25.1592L31.6106 25.1563L31.1008 24.296ZM22.9088 24.136L22.3879 24.9896L22.3879 24.9896L22.9088 24.136ZM19.9328 20.904L20.8188 20.4405L20.8188 20.4405L19.9328 20.904ZM30.7168 10.504L30.2053 11.3633L30.2172 11.3704L30.2294 11.3772L30.7168 10.504ZM24.7648 10.472L24.2686 9.60376L24.2686 9.60376L24.7648 10.472ZM22.6208 12.712L23.4994 13.1895L23.4994 13.1895L22.6208 12.712ZM22.6208 19.688L21.7378 20.1576L21.7421 20.1655L22.6208 19.688ZM24.7648 21.96L24.2533 22.8193L24.2609 22.8238L24.2686 22.8282L24.7648 21.96ZM30.7168 21.96L31.2129 22.8283L31.2194 22.8245L30.7168 21.96ZM32.8928 19.688L33.7714 20.1655L33.7756 20.1576L32.8928 19.688ZM19.8448 16.168C19.8448 14.513 20.1788 13.1136 20.8128 11.9389L19.0527 10.9891C18.236 12.5024 17.8448 14.239 17.8448 16.168H19.8448ZM20.8159 11.9332C21.4602 10.7203 22.3271 9.80374 23.419 9.15605L22.3985 7.43594C20.973 8.28159 19.856 9.47701 19.0496 10.9948L20.8159 11.9332ZM23.4126 9.15978C24.5318 8.50694 25.7751 8.176 27.1648 8.176V6.176C25.4397 6.176 23.8457 6.59173 22.4049 7.43222L23.4126 9.15978ZM27.1648 8.176C28.5542 8.176 29.707 8.47386 30.6599 9.03119L31.6696 7.30481C30.3611 6.53947 28.8473 6.176 27.1648 6.176V8.176ZM30.6599 9.03119C31.6579 9.61496 32.362 10.3242 32.8177 11.1481L34.5678 10.1799C33.9142 8.99846 32.9329 8.0437 31.6696 7.30481L30.6599 9.03119ZM34.6928 10.664V7.464H32.6928V10.664H34.6928ZM33.6928 8.464H36.6368V6.464H33.6928V8.464ZM35.6368 7.464V25H37.6368V7.464H35.6368ZM36.6368 24H33.6928V26H36.6368V24ZM34.6928 25V21.736H32.6928V25H34.6928ZM32.8212 21.2457C32.3427 22.0964 31.6134 22.8298 30.5909 23.4357L31.6106 25.1563C32.8921 24.3969 33.8908 23.4236 34.5643 22.2263L32.8212 21.2457ZM30.5959 23.4328C29.6409 23.9913 28.4981 24.288 27.1328 24.288V26.288C28.7968 26.288 30.2992 25.9233 31.6056 25.1592L30.5959 23.4328ZM27.1328 24.288C25.7484 24.288 24.5225 23.9492 23.4296 23.2824L22.3879 24.9896C23.8124 25.8588 25.4024 26.288 27.1328 26.288V24.288ZM23.4296 23.2824C22.3354 22.6147 21.4655 21.6767 20.8188 20.4405L19.0467 21.3675C19.8507 22.9047 20.9647 24.1213 22.3879 24.9896L23.4296 23.2824ZM20.8188 20.4405C20.1777 19.2147 19.8448 17.7987 19.8448 16.168H17.8448C17.8448 18.0786 18.2371 19.8199 19.0467 21.3675L20.8188 20.4405ZM34.6928 16.2C34.6928 14.7413 34.3978 13.4192 33.7714 12.2665L32.0141 13.2215C32.4543 14.0315 32.6928 15.0134 32.6928 16.2H34.6928ZM33.7714 12.2665C33.1537 11.1299 32.2973 10.2409 31.2041 9.6308L30.2294 11.3772C30.9709 11.7911 31.5652 12.3955 32.0141 13.2215L33.7714 12.2665ZM31.2282 9.64471C30.1706 9.01519 29.0006 8.704 27.7408 8.704V10.704C28.6569 10.704 29.4709 10.9261 30.2053 11.3633L31.2282 9.64471ZM27.7408 8.704C26.4885 8.704 25.324 9.00067 24.2686 9.60376L25.2609 11.3402C25.9975 10.9193 26.817 10.704 27.7408 10.704V8.704ZM24.2686 9.60376C23.198 10.2155 22.3566 11.1039 21.7421 12.2345L23.4994 13.1895C23.9516 12.3575 24.5395 11.7525 25.2609 11.3402L24.2686 9.60376ZM21.7421 12.2345C21.1157 13.3872 20.8208 14.7093 20.8208 16.168H22.8208C22.8208 14.9814 23.0592 13.9995 23.4994 13.1895L21.7421 12.2345ZM20.8208 16.168C20.8208 17.6458 21.1147 18.986 21.7379 20.1576L23.5036 19.2184C23.0601 18.3847 22.8208 17.3782 22.8208 16.168H20.8208ZM21.7421 20.1655C22.355 21.2931 23.1918 22.1875 24.2533 22.8193L25.2762 21.1007C24.5457 20.6659 23.9532 20.0455 23.4994 19.2105L21.7421 20.1655ZM24.2686 22.8282C25.324 23.4313 26.4885 23.728 27.7408 23.728V21.728C26.817 21.728 25.9975 21.5127 25.2609 21.0918L24.2686 22.8282ZM27.7408 23.728C28.993 23.728 30.1575 23.4313 31.2129 22.8282L30.2206 21.0918C29.484 21.5127 28.6645 21.728 27.7408 21.728V23.728ZM31.2194 22.8245C32.3036 22.1941 33.1553 21.299 33.7714 20.1655L32.0141 19.2105C31.5635 20.0396 30.9646 20.6592 30.2141 21.0955L31.2194 22.8245ZM33.7756 20.1576C34.3976 18.9882 34.6928 17.6594 34.6928 16.2H32.6928C32.6928 17.386 32.4545 18.3824 32.0099 19.2184L33.7756 20.1576ZM48.6938 9.864V10.864H49.6938V9.864H48.6938ZM45.0138 9.864V8.864H44.0138V9.864H45.0138ZM45.0138 25V26H46.0138V25H45.0138ZM42.1018 25H41.1018V26H42.1018V25ZM42.1018 9.864H43.1018V8.864H42.1018V9.864ZM39.8298 9.864H38.8298V10.864H39.8298V9.864ZM39.8298 7.464V6.464H38.8298V7.464H39.8298ZM42.1018 7.464V8.464H43.1018V7.464H42.1018ZM43.6058 1.928L44.2721 2.67366L44.273 2.67283L43.6058 1.928ZM48.5017 0.551998H49.5017V-0.448002H48.5017V0.551998ZM48.5017 2.984V3.984H49.5017V2.984H48.5017ZM45.7818 3.752L46.4737 4.47399L46.4743 4.47339L45.7818 3.752ZM45.0138 7.464H44.0138V8.464H45.0138V7.464ZM48.6938 7.464H49.6938V6.464H48.6938V7.464ZM48.6938 8.864H45.0138V10.864H48.6938V8.864ZM44.0138 9.864V25H46.0138V9.864H44.0138ZM45.0138 24H42.1018V26H45.0138V24ZM43.1018 25V9.864H41.1018V25H43.1018ZM42.1018 8.864H39.8298V10.864H42.1018V8.864ZM40.8298 9.864V7.464H38.8298V9.864H40.8298ZM39.8298 8.464H42.1018V6.464H39.8298V8.464ZM43.1018 7.464V6.216H41.1018V7.464H43.1018ZM43.1018 6.216C43.1018 4.40499 43.564 3.3064 44.2721 2.67366L42.9394 1.18234C41.6422 2.3416 41.1018 4.10168 41.1018 6.216H43.1018ZM44.273 2.67283C45.0282 1.99626 46.3623 1.552 48.5017 1.552V-0.448002C46.1612 -0.448002 44.2313 0.0250713 42.9385 1.18316L44.273 2.67283ZM47.5017 0.551998V2.984H49.5017V0.551998H47.5017ZM48.5017 1.984C47.1381 1.984 45.905 2.24746 45.0892 3.03061L46.4743 4.47339C46.7252 4.23253 47.3054 3.984 48.5017 3.984V1.984ZM45.0898 3.03001C44.2879 3.79859 44.0138 4.95522 44.0138 6.216H46.0138C46.0138 5.17278 46.2516 4.68674 46.4737 4.47399L45.0898 3.03001ZM44.0138 6.216V7.464H46.0138V6.216H44.0138ZM45.0138 8.464H48.6938V6.464H45.0138V8.464ZM47.6938 7.464V9.864H49.6938V7.464H47.6938ZM59.225 9.864V10.864H60.225V9.864H59.225ZM55.545 9.864V8.864H54.545V9.864H55.545ZM55.545 25V26H56.545V25H55.545ZM52.633 25H51.633V26H52.633V25ZM52.633 9.864H53.633V8.864H52.633V9.864ZM50.361 9.864H49.361V10.864H50.361V9.864ZM50.361 7.464V6.464H49.361V7.464H50.361ZM52.633 7.464V8.464H53.633V7.464H52.633ZM54.137 1.928L54.8033 2.67366L54.8042 2.67283L54.137 1.928ZM59.033 0.551998H60.033V-0.448002H59.033V0.551998ZM59.033 2.984V3.984H60.033V2.984H59.033ZM56.313 3.752L57.0049 4.47399L57.0055 4.47339L56.313 3.752ZM55.545 7.464H54.545V8.464H55.545V7.464ZM59.225 7.464H60.225V6.464H59.225V7.464ZM59.225 8.864H55.545V10.864H59.225V8.864ZM54.545 9.864V25H56.545V9.864H54.545ZM55.545 24H52.633V26H55.545V24ZM53.633 25V9.864H51.633V25H53.633ZM52.633 8.864H50.361V10.864H52.633V8.864ZM51.361 9.864V7.464H49.361V9.864H51.361ZM50.361 8.464H52.633V6.464H50.361V8.464ZM53.633 7.464V6.216H51.633V7.464H53.633ZM53.633 6.216C53.633 4.40499 54.0953 3.3064 54.8033 2.67366L53.4707 1.18234C52.1734 2.3416 51.633 4.10168 51.633 6.216H53.633ZM54.8042 2.67283C55.5595 1.99626 56.8936 1.552 59.033 1.552V-0.448002C56.6924 -0.448002 54.7625 0.0250713 53.4698 1.18316L54.8042 2.67283ZM58.033 0.551998V2.984H60.033V0.551998H58.033ZM59.033 1.984C57.6693 1.984 56.4362 2.24746 55.6205 3.03061L57.0055 4.47339C57.2564 4.23253 57.8367 3.984 59.033 3.984V1.984ZM55.6211 3.03001C54.8191 3.79859 54.545 4.95522 54.545 6.216H56.545C56.545 5.17278 56.7829 4.68674 57.0049 4.47399L55.6211 3.03001ZM54.545 6.216V7.464H56.545V6.216H54.545ZM55.545 8.464H59.225V6.464H55.545V8.464ZM58.225 7.464V9.864H60.225V7.464H58.225ZM62.7163 4.04L63.4234 3.33289L63.4234 3.33289L62.7163 4.04ZM62.7163 1.224L63.4234 1.93111L63.4234 1.93111L62.7163 1.224ZM65.4683 1.224L64.7412 1.91062L64.751 1.92101L64.7611 1.93111L65.4683 1.224ZM65.4683 4.04L64.7611 3.33289L64.751 3.34299L64.7412 3.35338L65.4683 4.04ZM65.5323 7.464H66.5323V6.464H65.5323V7.464ZM65.5323 25V26H66.5323V25H65.5323ZM62.6203 25H61.6203V26H62.6203V25ZM62.6203 7.464V6.464H61.6203V7.464H62.6203ZM64.1243 3.616C63.8284 3.616 63.6154 3.52491 63.4234 3.33289L62.0091 4.74711C62.5851 5.32309 63.3107 5.616 64.1243 5.616V3.616ZM63.4234 3.33289C63.2313 3.14088 63.1403 2.9278 63.1403 2.632H61.1403C61.1403 3.44553 61.4332 4.17112 62.0091 4.74711L63.4234 3.33289ZM63.1403 2.632C63.1403 2.33619 63.2313 2.12312 63.4234 1.93111L62.0091 0.516892C61.4332 1.09287 61.1403 1.81847 61.1403 2.632H63.1403ZM63.4234 1.93111C63.6154 1.73909 63.8284 1.648 64.1243 1.648V-0.352001C63.3107 -0.352001 62.5851 -0.0590907 62.0091 0.516892L63.4234 1.93111ZM64.1243 1.648C64.3855 1.648 64.5696 1.72884 64.7412 1.91062L66.1953 0.537376C65.6416 -0.0488466 64.9297 -0.352001 64.1243 -0.352001V1.648ZM64.7611 1.93111C64.9532 2.12312 65.0443 2.33619 65.0443 2.632H67.0443C67.0443 1.81847 66.7513 1.09287 66.1754 0.516892L64.7611 1.93111ZM65.0443 2.632C65.0443 2.9278 64.9532 3.14088 64.7611 3.33289L66.1754 4.74711C66.7513 4.17112 67.0443 3.44553 67.0443 2.632H65.0443ZM64.7412 3.35338C64.5696 3.53515 64.3855 3.616 64.1243 3.616V5.616C64.9297 5.616 65.6416 5.31284 66.1953 4.72662L64.7412 3.35338ZM64.5323 7.464V25H66.5323V7.464H64.5323ZM65.5323 24H62.6203V26H65.5323V24ZM63.6203 25V7.464H61.6203V25H63.6203ZM62.6203 8.464H65.5323V6.464H62.6203V8.464Z" fill="black" mask="url(#path-1-outside-1_632_30)"/>
</svg>
