<svg width="159" height="25" viewBox="0 0 159 25" fill="none" xmlns="http://www.w3.org/2000/svg">
<mask id="path-1-outside-1_632_30" maskUnits="userSpaceOnUse" x="-1" y="-1" width="161" height="27" fill="black">
<rect fill="white" x="-1" y="-1" width="161" height="27"/>
<path d="M8.536 24.224C7.064 24.224 5.74133 23.968 4.568 23.456C3.416 22.9227 2.50933 22.1973 1.848 21.28C1.18667 20.3413 0.845333 19.264 0.824 18.048H3.928C4.03467 19.0933 4.46133 19.9787 5.208 20.704C5.976 21.408 7.08533 21.76 8.536 21.76C9.92267 21.76 11.0107 21.4187 11.8 20.736C12.6107 20.032 13.016 19.136 13.016 18.048C13.016 17.1947 12.7813 16.5013 12.312 15.968C11.8427 15.4347 11.256 15.0293 10.552 14.752C9.848 14.4747 8.89867 14.176 7.704 13.856C6.232 13.472 5.048 13.088 4.152 12.704C3.27733 12.32 2.52 11.7227 1.88 10.912C1.26133 10.08 0.952 8.97067 0.952 7.584C0.952 6.368 1.26133 5.29067 1.88 4.352C2.49867 3.41333 3.36267 2.688 4.472 2.176C5.60267 1.664 6.89333 1.408 8.344 1.408C10.4347 1.408 12.1413 1.93067 13.464 2.976C14.808 4.02133 15.5653 5.408 15.736 7.136H12.536C12.4293 6.28267 11.9813 5.536 11.192 4.896C10.4027 4.23467 9.35733 3.904 8.056 3.904C6.84 3.904 5.848 4.224 5.08 4.864C4.312 5.48267 3.928 6.35733 3.928 7.488C3.928 8.29867 4.152 8.96 4.6 9.472C5.06933 9.984 5.63467 10.3787 6.296 10.656C6.97867 10.912 7.928 11.2107 9.144 11.552C10.616 11.9573 11.8 12.3627 12.696 12.768C13.592 13.152 14.36 13.76 15 14.592C15.64 15.4027 15.96 16.512 15.96 17.92C15.96 19.008 15.672 20.032 15.096 20.992C14.52 21.952 13.6667 22.7307 12.536 23.328C11.4053 23.9253 10.072 24.224 8.536 24.224ZM19.1573 15.168C19.1573 13.376 19.5199 11.808 20.2453 10.464C20.9706 9.09867 21.9626 8.04267 23.2213 7.296C24.5013 6.54933 25.9199 6.176 27.4773 6.176C29.0133 6.176 30.3466 6.50667 31.4773 7.168C32.6079 7.82933 33.4506 8.66133 34.0053 9.664V6.464H36.9493V24H34.0053V20.736C33.4293 21.76 32.5653 22.6133 31.4133 23.296C30.2826 23.9573 28.9599 24.288 27.4453 24.288C25.8879 24.288 24.4799 23.904 23.2213 23.136C21.9626 22.368 20.9706 21.2907 20.2453 19.904C19.5199 18.5173 19.1573 16.9387 19.1573 15.168ZM34.0053 15.2C34.0053 13.8773 33.7386 12.7253 33.2053 11.744C32.6719 10.7627 31.9466 10.016 31.0293 9.504C30.1333 8.97067 29.1413 8.704 28.0533 8.704C26.9653 8.704 25.9733 8.96 25.0773 9.472C24.1813 9.984 23.4666 10.7307 22.9333 11.712C22.3999 12.6933 22.1333 13.8453 22.1333 15.168C22.1333 16.512 22.3999 17.6853 22.9333 18.688C23.4666 19.6693 24.1813 20.4267 25.0773 20.96C25.9733 21.472 26.9653 21.728 28.0533 21.728C29.1413 21.728 30.1333 21.472 31.0293 20.96C31.9466 20.4267 32.6719 19.6693 33.2053 18.688C33.7386 17.6853 34.0053 16.5227 34.0053 15.2ZM50.4143 6.144C52.5476 6.144 54.2756 6.79467 55.5983 8.096C56.9209 9.376 57.5823 11.232 57.5823 13.664V24H54.7023V14.08C54.7023 12.3307 54.2649 10.9973 53.3903 10.08C52.5156 9.14133 51.3209 8.672 49.8063 8.672C48.2703 8.672 47.0436 9.152 46.1263 10.112C45.2303 11.072 44.7823 12.4693 44.7823 14.304V24H41.8703V6.464H44.7823V8.96C45.3583 8.064 46.1369 7.37067 47.1183 6.88C48.1209 6.38933 49.2196 6.144 50.4143 6.144ZM63.267 24.192C62.7123 24.192 62.243 24 61.859 23.616C61.475 23.232 61.283 22.7627 61.283 22.208C61.283 21.6533 61.475 21.184 61.859 20.8C62.243 20.416 62.7123 20.224 63.267 20.224C63.8003 20.224 64.2483 20.416 64.611 20.8C64.995 21.184 65.187 21.6533 65.187 22.208C65.187 22.7627 64.995 23.232 64.611 23.616C64.2483 24 63.8003 24.192 63.267 24.192ZM76.1298 24.224C74.6578 24.224 73.3351 23.968 72.1618 23.456C71.0098 22.9227 70.1031 22.1973 69.4418 21.28C68.7804 20.3413 68.4391 19.264 68.4178 18.048H71.5218C71.6284 19.0933 72.0551 19.9787 72.8018 20.704C73.5698 21.408 74.6791 21.76 76.1298 21.76C77.5164 21.76 78.6044 21.4187 79.3938 20.736C80.2044 20.032 80.6098 19.136 80.6098 18.048C80.6098 17.1947 80.3751 16.5013 79.9058 15.968C79.4364 15.4347 78.8498 15.0293 78.1458 14.752C77.4418 14.4747 76.4924 14.176 75.2978 13.856C73.8258 13.472 72.6418 13.088 71.7458 12.704C70.8711 12.32 70.1138 11.7227 69.4738 10.912C68.8551 10.08 68.5458 8.97067 68.5458 7.584C68.5458 6.368 68.8551 5.29067 69.4738 4.352C70.0924 3.41333 70.9564 2.688 72.0658 2.176C73.1964 1.664 74.4871 1.408 75.9378 1.408C78.0284 1.408 79.7351 1.93067 81.0578 2.976C82.4018 4.02133 83.1591 5.408 83.3298 7.136H80.1298C80.0231 6.28267 79.5751 5.536 78.7858 4.896C77.9964 4.23467 76.9511 3.904 75.6498 3.904C74.4338 3.904 73.4418 4.224 72.6738 4.864C71.9058 5.48267 71.5218 6.35733 71.5218 7.488C71.5218 8.29867 71.7458 8.96 72.1938 9.472C72.6631 9.984 73.2284 10.3787 73.8898 10.656C74.5724 10.912 75.5218 11.2107 76.7378 11.552C78.2098 11.9573 79.3938 12.3627 80.2898 12.768C81.1858 13.152 81.9538 13.76 82.5938 14.592C83.2338 15.4027 83.5538 16.512 83.5538 17.92C83.5538 19.008 83.2658 20.032 82.6898 20.992C82.1138 21.952 81.2604 22.7307 80.1298 23.328C78.9991 23.9253 77.6658 24.224 76.1298 24.224ZM96.543 6.144C97.8657 6.144 99.0603 6.432 100.127 7.008C101.194 7.56267 102.026 8.40533 102.623 9.536C103.242 10.6667 103.551 12.0427 103.551 13.664V24H100.671V14.08C100.671 12.3307 100.234 10.9973 99.359 10.08C98.4843 9.14133 97.2897 8.672 95.775 8.672C94.239 8.672 93.0123 9.152 92.095 10.112C91.199 11.072 90.751 12.4693 90.751 14.304V24H87.839V0.32H90.751V8.96C91.327 8.064 92.1163 7.37067 93.119 6.88C94.143 6.38933 95.2843 6.144 96.543 6.144ZM107.22 15.168C107.22 13.376 107.582 11.808 108.308 10.464C109.033 9.09867 110.025 8.04267 111.284 7.296C112.564 6.54933 113.982 6.176 115.54 6.176C117.076 6.176 118.409 6.50667 119.54 7.168C120.67 7.82933 121.513 8.66133 122.068 9.664V6.464H125.012V24H122.068V20.736C121.492 21.76 120.628 22.6133 119.476 23.296C118.345 23.9573 117.022 24.288 115.508 24.288C113.95 24.288 112.542 23.904 111.284 23.136C110.025 22.368 109.033 21.2907 108.308 19.904C107.582 18.5173 107.22 16.9387 107.22 15.168ZM122.068 15.2C122.068 13.8773 121.801 12.7253 121.268 11.744C120.734 10.7627 120.009 10.016 119.092 9.504C118.196 8.97067 117.204 8.704 116.116 8.704C115.028 8.704 114.036 8.96 113.14 9.472C112.244 9.984 111.529 10.7307 110.996 11.712C110.462 12.6933 110.196 13.8453 110.196 15.168C110.196 16.512 110.462 17.6853 110.996 18.688C111.529 19.6693 112.244 20.4267 113.14 20.96C114.036 21.472 115.028 21.728 116.116 21.728C117.204 21.728 118.196 21.472 119.092 20.96C120.009 20.4267 120.734 19.6693 121.268 18.688C121.801 17.6853 122.068 16.5227 122.068 15.2ZM132.845 9.312C133.357 8.30933 134.082 7.53067 135.021 6.976C135.981 6.42133 137.143 6.144 138.509 6.144V9.152H137.741C134.477 9.152 132.845 10.9227 132.845 14.464V24H129.933V6.464H132.845V9.312ZM140.782 15.168C140.782 13.376 141.145 11.808 141.87 10.464C142.596 9.09867 143.588 8.04267 144.846 7.296C146.126 6.54933 147.556 6.176 149.134 6.176C150.5 6.176 151.769 6.496 152.942 7.136C154.116 7.75467 155.012 8.576 155.63 9.6V0.32H158.574V24H155.63V20.704C155.054 21.7493 154.201 22.6133 153.07 23.296C151.94 23.9573 150.617 24.288 149.102 24.288C147.545 24.288 146.126 23.904 144.846 23.136C143.588 22.368 142.596 21.2907 141.87 19.904C141.145 18.5173 140.782 16.9387 140.782 15.168ZM155.63 15.2C155.63 13.8773 155.364 12.7253 154.83 11.744C154.297 10.7627 153.572 10.016 152.654 9.504C151.758 8.97067 150.766 8.704 149.678 8.704C148.59 8.704 147.598 8.96 146.702 9.472C145.806 9.984 145.092 10.7307 144.558 11.712C144.025 12.6933 143.758 13.8453 143.758 15.168C143.758 16.512 144.025 17.6853 144.558 18.688C145.092 19.6693 145.806 20.4267 146.702 20.96C147.598 21.472 148.59 21.728 149.678 21.728C150.766 21.728 151.758 21.472 152.654 20.96C153.572 20.4267 154.297 19.6693 154.83 18.688C155.364 17.6853 155.63 16.5227 155.63 15.2Z"/>
</mask>
<path d="M8.536 24.224C7.064 24.224 5.74133 23.968 4.568 23.456C3.416 22.9227 2.50933 22.1973 1.848 21.28C1.18667 20.3413 0.845333 19.264 0.824 18.048H3.928C4.03467 19.0933 4.46133 19.9787 5.208 20.704C5.976 21.408 7.08533 21.76 8.536 21.76C9.92267 21.76 11.0107 21.4187 11.8 20.736C12.6107 20.032 13.016 19.136 13.016 18.048C13.016 17.1947 12.7813 16.5013 12.312 15.968C11.8427 15.4347 11.256 15.0293 10.552 14.752C9.848 14.4747 8.89867 14.176 7.704 13.856C6.232 13.472 5.048 13.088 4.152 12.704C3.27733 12.32 2.52 11.7227 1.88 10.912C1.26133 10.08 0.952 8.97067 0.952 7.584C0.952 6.368 1.26133 5.29067 1.88 4.352C2.49867 3.41333 3.36267 2.688 4.472 2.176C5.60267 1.664 6.89333 1.408 8.344 1.408C10.4347 1.408 12.1413 1.93067 13.464 2.976C14.808 4.02133 15.5653 5.408 15.736 7.136H12.536C12.4293 6.28267 11.9813 5.536 11.192 4.896C10.4027 4.23467 9.35733 3.904 8.056 3.904C6.84 3.904 5.848 4.224 5.08 4.864C4.312 5.48267 3.928 6.35733 3.928 7.488C3.928 8.29867 4.152 8.96 4.6 9.472C5.06933 9.984 5.63467 10.3787 6.296 10.656C6.97867 10.912 7.928 11.2107 9.144 11.552C10.616 11.9573 11.8 12.3627 12.696 12.768C13.592 13.152 14.36 13.76 15 14.592C15.64 15.4027 15.96 16.512 15.96 17.92C15.96 19.008 15.672 20.032 15.096 20.992C14.52 21.952 13.6667 22.7307 12.536 23.328C11.4053 23.9253 10.072 24.224 8.536 24.224ZM19.1573 15.168C19.1573 13.376 19.5199 11.808 20.2453 10.464C20.9706 9.09867 21.9626 8.04267 23.2213 7.296C24.5013 6.54933 25.9199 6.176 27.4773 6.176C29.0133 6.176 30.3466 6.50667 31.4773 7.168C32.6079 7.82933 33.4506 8.66133 34.0053 9.664V6.464H36.9493V24H34.0053V20.736C33.4293 21.76 32.5653 22.6133 31.4133 23.296C30.2826 23.9573 28.9599 24.288 27.4453 24.288C25.8879 24.288 24.4799 23.904 23.2213 23.136C21.9626 22.368 20.9706 21.2907 20.2453 19.904C19.5199 18.5173 19.1573 16.9387 19.1573 15.168ZM34.0053 15.2C34.0053 13.8773 33.7386 12.7253 33.2053 11.744C32.6719 10.7627 31.9466 10.016 31.0293 9.504C30.1333 8.97067 29.1413 8.704 28.0533 8.704C26.9653 8.704 25.9733 8.96 25.0773 9.472C24.1813 9.984 23.4666 10.7307 22.9333 11.712C22.3999 12.6933 22.1333 13.8453 22.1333 15.168C22.1333 16.512 22.3999 17.6853 22.9333 18.688C23.4666 19.6693 24.1813 20.4267 25.0773 20.96C25.9733 21.472 26.9653 21.728 28.0533 21.728C29.1413 21.728 30.1333 21.472 31.0293 20.96C31.9466 20.4267 32.6719 19.6693 33.2053 18.688C33.7386 17.6853 34.0053 16.5227 34.0053 15.2ZM50.4143 6.144C52.5476 6.144 54.2756 6.79467 55.5983 8.096C56.9209 9.376 57.5823 11.232 57.5823 13.664V24H54.7023V14.08C54.7023 12.3307 54.2649 10.9973 53.3903 10.08C52.5156 9.14133 51.3209 8.672 49.8063 8.672C48.2703 8.672 47.0436 9.152 46.1263 10.112C45.2303 11.072 44.7823 12.4693 44.7823 14.304V24H41.8703V6.464H44.7823V8.96C45.3583 8.064 46.1369 7.37067 47.1183 6.88C48.1209 6.38933 49.2196 6.144 50.4143 6.144ZM63.267 24.192C62.7123 24.192 62.243 24 61.859 23.616C61.475 23.232 61.283 22.7627 61.283 22.208C61.283 21.6533 61.475 21.184 61.859 20.8C62.243 20.416 62.7123 20.224 63.267 20.224C63.8003 20.224 64.2483 20.416 64.611 20.8C64.995 21.184 65.187 21.6533 65.187 22.208C65.187 22.7627 64.995 23.232 64.611 23.616C64.2483 24 63.8003 24.192 63.267 24.192ZM76.1298 24.224C74.6578 24.224 73.3351 23.968 72.1618 23.456C71.0098 22.9227 70.1031 22.1973 69.4418 21.28C68.7804 20.3413 68.4391 19.264 68.4178 18.048H71.5218C71.6284 19.0933 72.0551 19.9787 72.8018 20.704C73.5698 21.408 74.6791 21.76 76.1298 21.76C77.5164 21.76 78.6044 21.4187 79.3938 20.736C80.2044 20.032 80.6098 19.136 80.6098 18.048C80.6098 17.1947 80.3751 16.5013 79.9058 15.968C79.4364 15.4347 78.8498 15.0293 78.1458 14.752C77.4418 14.4747 76.4924 14.176 75.2978 13.856C73.8258 13.472 72.6418 13.088 71.7458 12.704C70.8711 12.32 70.1138 11.7227 69.4738 10.912C68.8551 10.08 68.5458 8.97067 68.5458 7.584C68.5458 6.368 68.8551 5.29067 69.4738 4.352C70.0924 3.41333 70.9564 2.688 72.0658 2.176C73.1964 1.664 74.4871 1.408 75.9378 1.408C78.0284 1.408 79.7351 1.93067 81.0578 2.976C82.4018 4.02133 83.1591 5.408 83.3298 7.136H80.1298C80.0231 6.28267 79.5751 5.536 78.7858 4.896C77.9964 4.23467 76.9511 3.904 75.6498 3.904C74.4338 3.904 73.4418 4.224 72.6738 4.864C71.9058 5.48267 71.5218 6.35733 71.5218 7.488C71.5218 8.29867 71.7458 8.96 72.1938 9.472C72.6631 9.984 73.2284 10.3787 73.8898 10.656C74.5724 10.912 75.5218 11.2107 76.7378 11.552C78.2098 11.9573 79.3938 12.3627 80.2898 12.768C81.1858 13.152 81.9538 13.76 82.5938 14.592C83.2338 15.4027 83.5538 16.512 83.5538 17.92C83.5538 19.008 83.2658 20.032 82.6898 20.992C82.1138 21.952 81.2604 22.7307 80.1298 23.328C78.9991 23.9253 77.6658 24.224 76.1298 24.224ZM96.543 6.144C97.8657 6.144 99.0603 6.432 100.127 7.008C101.194 7.56267 102.026 8.40533 102.623 9.536C103.242 10.6667 103.551 12.0427 103.551 13.664V24H100.671V14.08C100.671 12.3307 100.234 10.9973 99.359 10.08C98.4843 9.14133 97.2897 8.672 95.775 8.672C94.239 8.672 93.0123 9.152 92.095 10.112C91.199 11.072 90.751 12.4693 90.751 14.304V24H87.839V0.32H90.751V8.96C91.327 8.064 92.1163 7.37067 93.119 6.88C94.143 6.38933 95.2843 6.144 96.543 6.144ZM107.22 15.168C107.22 13.376 107.582 11.808 108.308 10.464C109.033 9.09867 110.025 8.04267 111.284 7.296C112.564 6.54933 113.982 6.176 115.54 6.176C117.076 6.176 118.409 6.50667 119.54 7.168C120.67 7.82933 121.513 8.66133 122.068 9.664V6.464H125.012V24H122.068V20.736C121.492 21.76 120.628 22.6133 119.476 23.296C118.345 23.9573 117.022 24.288 115.508 24.288C113.95 24.288 112.542 23.904 111.284 23.136C110.025 22.368 109.033 21.2907 108.308 19.904C107.582 18.5173 107.22 16.9387 107.22 15.168ZM122.068 15.2C122.068 13.8773 121.801 12.7253 121.268 11.744C120.734 10.7627 120.009 10.016 119.092 9.504C118.196 8.97067 117.204 8.704 116.116 8.704C115.028 8.704 114.036 8.96 113.14 9.472C112.244 9.984 111.529 10.7307 110.996 11.712C110.462 12.6933 110.196 13.8453 110.196 15.168C110.196 16.512 110.462 17.6853 110.996 18.688C111.529 19.6693 112.244 20.4267 113.14 20.96C114.036 21.472 115.028 21.728 116.116 21.728C117.204 21.728 118.196 21.472 119.092 20.96C120.009 20.4267 120.734 19.6693 121.268 18.688C121.801 17.6853 122.068 16.5227 122.068 15.2ZM132.845 9.312C133.357 8.30933 134.082 7.53067 135.021 6.976C135.981 6.42133 137.143 6.144 138.509 6.144V9.152H137.741C134.477 9.152 132.845 10.9227 132.845 14.464V24H129.933V6.464H132.845V9.312ZM140.782 15.168C140.782 13.376 141.145 11.808 141.87 10.464C142.596 9.09867 143.588 8.04267 144.846 7.296C146.126 6.54933 147.556 6.176 149.134 6.176C150.5 6.176 151.769 6.496 152.942 7.136C154.116 7.75467 155.012 8.576 155.63 9.6V0.32H158.574V24H155.63V20.704C155.054 21.7493 154.201 22.6133 153.07 23.296C151.94 23.9573 150.617 24.288 149.102 24.288C147.545 24.288 146.126 23.904 144.846 23.136C143.588 22.368 142.596 21.2907 141.87 19.904C141.145 18.5173 140.782 16.9387 140.782 15.168ZM155.63 15.2C155.63 13.8773 155.364 12.7253 154.83 11.744C154.297 10.7627 153.572 10.016 152.654 9.504C151.758 8.97067 150.766 8.704 149.678 8.704C148.59 8.704 147.598 8.96 146.702 9.472C145.806 9.984 145.092 10.7307 144.558 11.712C144.025 12.6933 143.758 13.8453 143.758 15.168C143.758 16.512 144.025 17.6853 144.558 18.688C145.092 19.6693 145.806 20.4267 146.702 20.96C147.598 21.472 148.59 21.728 149.678 21.728C150.766 21.728 151.758 21.472 152.654 20.96C153.572 20.4267 154.297 19.6693 154.83 18.688C155.364 17.6853 155.63 16.5227 155.63 15.2Z" fill="black"/>
<path d="M4.568 23.456L4.14788 24.3635L4.15792 24.3681L4.16806 24.3725L4.568 23.456ZM1.848 21.28L1.03047 21.856L1.03682 21.8648L1.848 21.28ZM0.824 18.048V17.048H-0.193698L-0.175846 18.0655L0.824 18.048ZM3.928 18.048L4.92283 17.9465L4.83115 17.048H3.928V18.048ZM5.208 20.704L4.51121 21.4213L4.5216 21.4314L4.53228 21.4412L5.208 20.704ZM11.8 20.736L12.4542 21.4924L12.4557 21.491L11.8 20.736ZM12.312 15.968L11.5613 16.6286L11.5613 16.6286L12.312 15.968ZM10.552 14.752L10.1855 15.6824L10.1855 15.6824L10.552 14.752ZM7.704 13.856L7.96274 12.89L7.95642 12.8884L7.704 13.856ZM4.152 12.704L3.74999 13.6197L3.75808 13.6231L4.152 12.704ZM1.88 10.912L1.07754 11.5087L1.08616 11.5203L1.09512 11.5316L1.88 10.912ZM1.88 4.352L2.71496 4.90231L2.71496 4.90231L1.88 4.352ZM4.472 2.176L4.05948 1.26502L4.05294 1.26804L4.472 2.176ZM13.464 2.976L12.8439 3.76058L12.8501 3.76535L13.464 2.976ZM15.736 7.136V8.136H16.8396L16.7312 7.03771L15.736 7.136ZM12.536 7.136L11.5437 7.26003L11.6532 8.136H12.536V7.136ZM11.192 4.896L10.5498 5.66252L10.5559 5.66769L10.5622 5.67276L11.192 4.896ZM5.08 4.864L5.70733 5.64275L5.7138 5.63754L5.72018 5.63222L5.08 4.864ZM4.6 9.472L3.84742 10.1305L3.85504 10.1392L3.86285 10.1477L4.6 9.472ZM6.296 10.656L5.90927 11.5782L5.92694 11.5856L5.94488 11.5923L6.296 10.656ZM9.144 11.552L8.87374 12.5148L8.87852 12.5161L9.144 11.552ZM12.696 12.768L12.2838 13.6791L12.2929 13.6832L12.3021 13.6871L12.696 12.768ZM15 14.592L14.2073 15.2018L14.2151 15.2116L15 14.592ZM15.096 20.992L15.9535 21.5065L15.9535 21.5065L15.096 20.992ZM12.536 23.328L12.0689 22.4438L12.536 23.328ZM8.536 23.224C7.18114 23.224 5.99761 22.9888 4.96794 22.5395L4.16806 24.3725C5.48506 24.9472 6.94686 25.224 8.536 25.224V23.224ZM4.98812 22.5485C3.97256 22.0784 3.2082 21.4567 2.65918 20.6952L1.03682 21.8648C1.81047 22.9379 2.85944 23.767 4.14788 24.3635L4.98812 22.5485ZM2.66548 20.704C2.12646 19.939 1.84189 19.0588 1.82385 18.0305L-0.175846 18.0655C-0.15122 19.4692 0.246871 20.7437 1.03052 21.856L2.66548 20.704ZM0.824 19.048H3.928V17.048H0.824V19.048ZM2.93317 18.1495C3.06346 19.4263 3.59417 20.5304 4.51121 21.4213L5.90479 19.9867C5.3285 19.4269 5.00588 18.7603 4.92283 17.9465L2.93317 18.1495ZM4.53228 21.4412C5.54635 22.3707 6.9337 22.76 8.536 22.76V20.76C7.23697 20.76 6.40565 20.4453 5.88372 19.9668L4.53228 21.4412ZM8.536 22.76C10.0829 22.76 11.4306 22.3776 12.4542 21.4924L11.1458 19.9796C10.5907 20.4597 9.7624 20.76 8.536 20.76V22.76ZM12.4557 21.491C13.4884 20.5942 14.016 19.4212 14.016 18.048H12.016C12.016 18.8508 11.7329 19.4698 11.1443 19.981L12.4557 21.491ZM14.016 18.048C14.016 17.0028 13.7237 16.0585 13.0627 15.3074L11.5613 16.6286C11.839 16.9442 12.016 17.3865 12.016 18.048H14.016ZM13.0627 15.3074C12.4818 14.6472 11.7603 14.1532 10.9185 13.8216L10.1855 15.6824C10.7517 15.9055 11.2036 16.2221 11.5613 16.6286L13.0627 15.3074ZM10.9185 13.8216C10.1643 13.5245 9.17419 13.2145 7.96274 12.8901L7.44526 14.8219C8.62314 15.1375 9.53166 15.4248 10.1855 15.6824L10.9185 13.8216ZM7.95642 12.8884C6.50917 12.5108 5.37806 12.1415 4.54592 11.7849L3.75808 13.6231C4.71794 14.0345 5.95483 14.4332 7.45158 14.8236L7.95642 12.8884ZM4.55399 11.7884C3.84127 11.4755 3.21186 10.9852 2.66488 10.2924L1.09512 11.5316C1.82814 12.4601 2.71339 13.1645 3.75001 13.6196L4.55399 11.7884ZM2.68246 10.3153C2.22918 9.70572 1.952 8.82759 1.952 7.584H-0.0479999C-0.0479999 9.11375 0.293482 10.4543 1.07754 11.5087L2.68246 10.3153ZM1.952 7.584C1.952 6.54694 2.21278 5.66423 2.71496 4.90231L1.04504 3.80169C0.309882 4.9171 -0.0479999 6.18906 -0.0479999 7.584H1.952ZM2.71496 4.90231C3.22217 4.13274 3.93574 3.52487 4.89106 3.08396L4.05294 1.26804C2.78959 1.85112 1.77516 2.69392 1.04504 3.80169L2.71496 4.90231ZM4.88451 3.08695C5.86551 2.64272 7.0118 2.408 8.344 2.408V0.407999C6.77486 0.407999 5.33982 0.685274 4.05949 1.26504L4.88451 3.08695ZM8.344 2.408C10.265 2.408 11.7368 2.88559 12.8439 3.76056L14.0841 2.19144C12.5458 0.975743 10.6044 0.407999 8.344 0.407999V2.408ZM12.8501 3.76535C13.9728 4.6386 14.5965 5.77305 14.7408 7.23429L16.7312 7.03771C16.5341 5.04295 15.6432 3.40406 14.0779 2.18665L12.8501 3.76535ZM15.736 6.136H12.536V8.136H15.736V6.136ZM13.5283 7.01197C13.3839 5.85665 12.7728 4.89029 11.8218 4.11924L10.5622 5.67276C11.1899 6.18171 11.4748 6.70868 11.5437 7.26003L13.5283 7.01197ZM11.8342 4.12948C10.8215 3.28101 9.52865 2.904 8.056 2.904V4.904C9.18601 4.904 9.9838 5.18832 10.5498 5.66252L11.8342 4.12948ZM8.056 2.904C6.65859 2.904 5.42413 3.27552 4.43982 4.09578L5.72018 5.63222C6.27187 5.17248 7.02141 4.904 8.056 4.904V2.904ZM4.45267 4.08524C3.41273 4.92298 2.928 6.10463 2.928 7.488H4.928C4.928 6.61003 5.21127 6.04235 5.70733 5.64275L4.45267 4.08524ZM2.928 7.488C2.928 8.49209 3.21047 9.40256 3.84742 10.1305L5.35258 8.81349C5.09353 8.51744 4.928 8.10524 4.928 7.488H2.928ZM3.86285 10.1477C4.43302 10.7697 5.11915 11.2469 5.90927 11.5782L6.68273 9.7338C6.15019 9.51048 5.70565 9.19827 5.33715 8.79627L3.86285 10.1477ZM5.94488 11.5923C6.66646 11.8629 7.64705 12.1705 8.87374 12.5148L9.41426 10.5892C8.20895 10.2509 7.29087 9.96108 6.64712 9.71967L5.94488 11.5923ZM8.87852 12.5161C10.3245 12.9143 11.4537 13.3036 12.2838 13.6791L13.1082 11.8569C12.1463 11.4218 10.9075 11.0004 9.40948 10.5879L8.87852 12.5161ZM12.3021 13.6871C13.0289 13.9986 13.6634 14.4945 14.2074 15.2017L15.7926 13.9823C15.0566 13.0255 14.1551 12.3054 13.0899 11.8489L12.3021 13.6871ZM14.2151 15.2116C14.6728 15.7913 14.96 16.6559 14.96 17.92H16.96C16.96 16.3681 16.6072 15.014 15.7849 13.9724L14.2151 15.2116ZM14.96 17.92C14.96 18.8213 14.7241 19.6682 14.2385 20.4775L15.9535 21.5065C16.6199 20.3958 16.96 19.1947 16.96 17.92H14.96ZM14.2385 20.4775C13.7692 21.2597 13.0615 21.9194 12.0689 22.4438L13.0031 24.2122C14.2718 23.542 15.2708 22.6443 15.9535 21.5065L14.2385 20.4775ZM12.0689 22.4438C11.1084 22.9512 9.94173 23.224 8.536 23.224V25.224C10.2023 25.224 11.7022 24.8995 13.0031 24.2122L12.0689 22.4438ZM20.2453 10.464L21.1253 10.9389L21.1284 10.9332L20.2453 10.464ZM23.2213 7.296L22.7174 6.4322L22.711 6.43594L23.2213 7.296ZM31.4773 7.168L30.9724 8.03119L30.9724 8.03119L31.4773 7.168ZM34.0053 9.664L33.1302 10.1481L35.0053 9.664H34.0053ZM34.0053 6.464V5.464H33.0053V6.464H34.0053ZM36.9493 6.464H37.9493V5.464H36.9493V6.464ZM36.9493 24V25H37.9493V24H36.9493ZM34.0053 24H33.0053V25H34.0053V24ZM34.0053 20.736H35.0053V16.9185L33.1337 20.2457L34.0053 20.736ZM31.4133 23.296L31.9181 24.1592L31.9231 24.1563L31.4133 23.296ZM23.2213 23.136L22.7004 23.9896L22.7004 23.9896L23.2213 23.136ZM20.2453 19.904L21.1313 19.4405L21.1313 19.4405L20.2453 19.904ZM31.0293 9.504L30.5178 10.3633L30.5297 10.3704L30.5419 10.3772L31.0293 9.504ZM25.0773 9.472L24.5811 8.60376L24.5811 8.60376L25.0773 9.472ZM22.9333 11.712L23.8119 12.1895L23.8119 12.1895L22.9333 11.712ZM22.9333 18.688L22.0503 19.1576L22.0546 19.1655L22.9333 18.688ZM25.0773 20.96L24.5658 21.8193L24.5734 21.8238L24.5811 21.8282L25.0773 20.96ZM31.0293 20.96L31.5254 21.8283L31.5319 21.8245L31.0293 20.96ZM33.2053 18.688L34.0839 19.1655L34.0881 19.1576L33.2053 18.688ZM20.1573 15.168C20.1573 13.513 20.4913 12.1136 21.1253 10.9389L19.3652 9.98907C18.5485 11.5024 18.1573 13.239 18.1573 15.168H20.1573ZM21.1284 10.9332C21.7727 9.72032 22.6396 8.80374 23.7315 8.15605L22.711 6.43594C21.2855 7.28159 20.1685 8.47701 19.3621 9.99484L21.1284 10.9332ZM23.7251 8.15978C24.8443 7.50694 26.0876 7.176 27.4773 7.176V5.176C25.7522 5.176 24.1582 5.59173 22.7174 6.43222L23.7251 8.15978ZM27.4773 7.176C28.8667 7.176 30.0195 7.47386 30.9724 8.03119L31.9821 6.30481C30.6736 5.53947 29.1598 5.176 27.4773 5.176V7.176ZM30.9724 8.03119C31.9704 8.61496 32.6745 9.32421 33.1302 10.1481L34.8803 9.17994C34.2267 7.99846 33.2454 7.0437 31.9821 6.30481L30.9724 8.03119ZM35.0053 9.664V6.464H33.0053V9.664H35.0053ZM34.0053 7.464H36.9493V5.464H34.0053V7.464ZM35.9493 6.464V24H37.9493V6.464H35.9493ZM36.9493 23H34.0053V25H36.9493V23ZM35.0053 24V20.736H33.0053V24H35.0053ZM33.1337 20.2457C32.6552 21.0964 31.9259 21.8298 30.9034 22.4357L31.9231 24.1563C33.2046 23.3969 34.2033 22.4236 34.8768 21.2263L33.1337 20.2457ZM30.9084 22.4328C29.9534 22.9913 28.8106 23.288 27.4453 23.288V25.288C29.1093 25.288 30.6117 24.9233 31.9181 24.1592L30.9084 22.4328ZM27.4453 23.288C26.0609 23.288 24.835 22.9492 23.7421 22.2824L22.7004 23.9896C24.1249 24.8588 25.7149 25.288 27.4453 25.288V23.288ZM23.7421 22.2824C22.6479 21.6147 21.778 20.6767 21.1313 19.4405L19.3592 20.3675C20.1632 21.9047 21.2772 23.1213 22.7004 23.9896L23.7421 22.2824ZM21.1313 19.4405C20.4902 18.2147 20.1573 16.7987 20.1573 15.168H18.1573C18.1573 17.0786 18.5496 18.8199 19.3592 20.3675L21.1313 19.4405ZM35.0053 15.2C35.0053 13.7413 34.7103 12.4192 34.0839 11.2665L32.3266 12.2215C32.7668 13.0315 33.0053 14.0134 33.0053 15.2H35.0053ZM34.0839 11.2665C33.4662 10.1299 32.6098 9.24093 31.5166 8.6308L30.5419 10.3772C31.2834 10.7911 31.8777 11.3955 32.3266 12.2215L34.0839 11.2665ZM31.5407 8.64471C30.4831 8.01519 29.3131 7.704 28.0533 7.704V9.704C28.9694 9.704 29.7834 9.92614 30.5178 10.3633L31.5407 8.64471ZM28.0533 7.704C26.801 7.704 25.6365 8.00067 24.5811 8.60376L25.5734 10.3402C26.31 9.91932 27.1295 9.704 28.0533 9.704V7.704ZM24.5811 8.60376C23.5105 9.21551 22.6691 10.1039 22.0546 11.2345L23.8119 12.1895C24.2641 11.3575 24.852 10.7525 25.5734 10.3402L24.5811 8.60376ZM22.0546 11.2345C21.4282 12.3872 21.1333 13.7093 21.1333 15.168H23.1333C23.1333 13.9814 23.3717 12.9995 23.8119 12.1895L22.0546 11.2345ZM21.1333 15.168C21.1333 16.6458 21.4272 17.986 22.0504 19.1576L23.8161 18.2184C23.3726 17.3847 23.1333 16.3782 23.1333 15.168H21.1333ZM22.0546 19.1655C22.6675 20.2931 23.5043 21.1875 24.5658 21.8193L25.5887 20.1007C24.8582 19.6659 24.2657 19.0455 23.8119 18.2105L22.0546 19.1655ZM24.5811 21.8282C25.6365 22.4313 26.801 22.728 28.0533 22.728V20.728C27.1295 20.728 26.31 20.5127 25.5734 20.0918L24.5811 21.8282ZM28.0533 22.728C29.3055 22.728 30.47 22.4313 31.5254 21.8282L30.5331 20.0918C29.7965 20.5127 28.977 20.728 28.0533 20.728V22.728ZM31.5319 21.8245C32.6161 21.1941 33.4678 20.299 34.0839 19.1655L32.3266 18.2105C31.876 19.0396 31.2771 19.6592 30.5266 20.0955L31.5319 21.8245ZM34.0881 19.1576C34.7101 17.9882 35.0053 16.6594 35.0053 15.2H33.0053C33.0053 16.386 32.767 17.3824 32.3224 18.2184L34.0881 19.1576ZM55.5983 8.096L54.8969 8.80886L54.9028 8.8146L55.5983 8.096ZM57.5823 24V25H58.5823V24H57.5823ZM54.7023 24H53.7023V25H54.7023V24ZM53.3903 10.08L52.6586 10.7618L52.6665 10.7701L53.3903 10.08ZM46.1263 10.112L45.4032 9.42109L45.3952 9.42968L46.1263 10.112ZM44.7823 24V25H45.7823V24H44.7823ZM41.8703 24H40.8703V25H41.8703V24ZM41.8703 6.464V5.464H40.8703V6.464H41.8703ZM44.7823 6.464H45.7823V5.464H44.7823V6.464ZM44.7823 8.96H43.7823V12.3648L45.6234 9.50076L44.7823 8.96ZM47.1183 6.88L46.6787 5.98175L46.671 5.98557L47.1183 6.88ZM50.4143 7.144C52.3277 7.144 53.7896 7.71933 54.8969 8.80883L56.2996 7.38317C54.7616 5.87 52.7675 5.144 50.4143 5.144V7.144ZM54.9028 8.8146C55.9741 9.85131 56.5823 11.4122 56.5823 13.664H58.5823C58.5823 11.0518 57.8677 8.90069 56.2937 7.3774L54.9028 8.8146ZM56.5823 13.664V24H58.5823V13.664H56.5823ZM57.5823 23H54.7023V25H57.5823V23ZM55.7023 24V14.08H53.7023V24H55.7023ZM55.7023 14.08C55.7023 12.1726 55.2242 10.5543 54.114 9.38992L52.6665 10.7701C53.3056 11.4404 53.7023 12.4887 53.7023 14.08H55.7023ZM54.1219 9.39827C53.0238 8.2199 51.5439 7.672 49.8063 7.672V9.672C51.098 9.672 52.0073 10.0628 52.6586 10.7617L54.1219 9.39827ZM49.8063 7.672C48.0438 7.672 46.5393 8.2323 45.4033 9.42114L46.8492 10.8029C47.5479 10.0717 48.4967 9.672 49.8063 9.672V7.672ZM45.3952 9.42968C44.2679 10.6375 43.7823 12.3172 43.7823 14.304H45.7823C45.7823 12.6215 46.1926 11.5065 46.8573 10.7943L45.3952 9.42968ZM43.7823 14.304V24H45.7823V14.304H43.7823ZM44.7823 23H41.8703V25H44.7823V23ZM42.8703 24V6.464H40.8703V24H42.8703ZM41.8703 7.464H44.7823V5.464H41.8703V7.464ZM43.7823 6.464V8.96H45.7823V6.464H43.7823ZM45.6234 9.50076C46.0993 8.76059 46.7398 8.18727 47.5655 7.77443L46.671 5.98557C45.5341 6.55406 44.6172 7.36741 43.9411 8.41924L45.6234 9.50076ZM47.5578 7.77822C48.4141 7.35916 49.361 7.144 50.4143 7.144V5.144C49.0782 5.144 47.8277 5.4195 46.6787 5.98178L47.5578 7.77822ZM61.859 23.616L61.1519 24.3231L61.1519 24.3231L61.859 23.616ZM61.859 20.8L62.5661 21.5071L62.5661 21.5071L61.859 20.8ZM64.611 20.8L63.884 21.4866L63.8938 21.497L63.9039 21.5071L64.611 20.8ZM64.611 23.616L63.9039 22.9089L63.8938 22.919L63.884 22.9294L64.611 23.616ZM63.267 23.192C62.9712 23.192 62.7581 23.1009 62.5661 22.9089L61.1519 24.3231C61.7279 24.8991 62.4535 25.192 63.267 25.192V23.192ZM62.5661 22.9089C62.3741 22.7169 62.283 22.5038 62.283 22.208H60.283C60.283 23.0215 60.5759 23.7471 61.1519 24.3231L62.5661 22.9089ZM62.283 22.208C62.283 21.9122 62.3741 21.6991 62.5661 21.5071L61.1519 20.0929C60.5759 20.6689 60.283 21.3945 60.283 22.208H62.283ZM62.5661 21.5071C62.7581 21.3151 62.9712 21.224 63.267 21.224V19.224C62.4535 19.224 61.7279 19.5169 61.1519 20.0929L62.5661 21.5071ZM63.267 21.224C63.5282 21.224 63.7123 21.3048 63.884 21.4866L65.338 20.1134C64.7844 19.5272 64.0724 19.224 63.267 19.224V21.224ZM63.9039 21.5071C64.0959 21.6991 64.187 21.9122 64.187 22.208H66.187C66.187 21.3945 65.8941 20.6689 65.3181 20.0929L63.9039 21.5071ZM64.187 22.208C64.187 22.5038 64.0959 22.7169 63.9039 22.9089L65.3181 24.3231C65.8941 23.7471 66.187 23.0215 66.187 22.208H64.187ZM63.884 22.9294C63.7123 23.1112 63.5282 23.192 63.267 23.192V25.192C64.0724 25.192 64.7844 24.8888 65.338 24.3026L63.884 22.9294ZM72.1618 23.456L71.7416 24.3635L71.7517 24.3681L71.7618 24.3725L72.1618 23.456ZM69.4418 21.28L68.6242 21.856L68.6306 21.8648L69.4418 21.28ZM68.4178 18.048V17.048H67.4001L67.4179 18.0655L68.4178 18.048ZM71.5218 18.048L72.5166 17.9465L72.4249 17.048H71.5218V18.048ZM72.8018 20.704L72.105 21.4213L72.1154 21.4314L72.126 21.4412L72.8018 20.704ZM79.3938 20.736L80.0479 21.4924L80.0494 21.491L79.3938 20.736ZM79.9058 15.968L79.155 16.6286L79.155 16.6286L79.9058 15.968ZM78.1458 14.752L77.7792 15.6824L77.7792 15.6824L78.1458 14.752ZM75.2978 13.856L75.5565 12.89L75.5502 12.8884L75.2978 13.856ZM71.7458 12.704L71.3437 13.6197L71.3518 13.6231L71.7458 12.704ZM69.4738 10.912L68.6713 11.5087L68.6799 11.5203L68.6889 11.5316L69.4738 10.912ZM69.4738 4.352L70.3087 4.90231L70.3087 4.90231L69.4738 4.352ZM72.0658 2.176L71.6532 1.26502L71.6467 1.26804L72.0658 2.176ZM81.0578 2.976L80.4377 3.76058L80.4438 3.76535L81.0578 2.976ZM83.3298 7.136V8.136H84.4334L84.3249 7.03771L83.3298 7.136ZM80.1298 7.136L79.1375 7.26003L79.247 8.136H80.1298V7.136ZM78.7858 4.896L78.1435 5.66252L78.1497 5.66769L78.1559 5.67276L78.7858 4.896ZM72.6738 4.864L73.3011 5.64275L73.3076 5.63754L73.3139 5.63222L72.6738 4.864ZM72.1938 9.472L71.4412 10.1305L71.4488 10.1392L71.4566 10.1477L72.1938 9.472ZM73.8898 10.656L73.503 11.5782L73.5207 11.5856L73.5386 11.5923L73.8898 10.656ZM76.7378 11.552L76.4675 12.5148L76.4723 12.5161L76.7378 11.552ZM80.2898 12.768L79.8776 13.6791L79.8867 13.6832L79.8958 13.6871L80.2898 12.768ZM82.5938 14.592L81.8011 15.2018L81.8089 15.2116L82.5938 14.592ZM82.6898 20.992L83.5472 21.5065L83.5472 21.5065L82.6898 20.992ZM80.1298 23.328L79.6626 22.4438L80.1298 23.328ZM76.1298 23.224C74.7749 23.224 73.5914 22.9888 72.5617 22.5395L71.7618 24.3725C73.0788 24.9472 74.5406 25.224 76.1298 25.224V23.224ZM72.5819 22.5485C71.5663 22.0784 70.8019 21.4567 70.2529 20.6952L68.6306 21.8648C69.4042 22.9379 70.4532 23.767 71.7416 24.3635L72.5819 22.5485ZM70.2592 20.704C69.7202 19.939 69.4356 19.0588 69.4176 18.0305L67.4179 18.0655C67.4425 19.4692 67.8406 20.7437 68.6243 21.856L70.2592 20.704ZM68.4178 19.048H71.5218V17.048H68.4178V19.048ZM70.5269 18.1495C70.6572 19.4263 71.1879 20.5304 72.105 21.4213L73.4985 19.9867C72.9223 19.4269 72.5996 18.7603 72.5166 17.9465L70.5269 18.1495ZM72.126 21.4412C73.1401 22.3707 74.5274 22.76 76.1298 22.76V20.76C74.8307 20.76 73.9994 20.4453 73.4775 19.9668L72.126 21.4412ZM76.1298 22.76C77.6767 22.76 79.0243 22.3776 80.0479 21.4924L78.7396 19.9796C78.1845 20.4597 77.3562 20.76 76.1298 20.76V22.76ZM80.0494 21.491C81.0821 20.5942 81.6098 19.4212 81.6098 18.048H79.6098C79.6098 18.8508 79.3267 19.4698 78.7381 19.981L80.0494 21.491ZM81.6098 18.048C81.6098 17.0028 81.3174 16.0585 80.6565 15.3074L79.155 16.6286C79.4327 16.9442 79.6098 17.3865 79.6098 18.048H81.6098ZM80.6565 15.3074C80.0755 14.6472 79.3541 14.1532 78.5123 13.8216L77.7792 15.6824C78.3454 15.9055 78.7973 16.2221 79.155 16.6286L80.6565 15.3074ZM78.5123 13.8216C77.7581 13.5245 76.7679 13.2145 75.5565 12.8901L75.039 14.8219C76.2169 15.1375 77.1254 15.4248 77.7792 15.6824L78.5123 13.8216ZM75.5502 12.8884C74.1029 12.5108 72.9718 12.1415 72.1397 11.7849L71.3518 13.6231C72.3117 14.0345 73.5486 14.4332 75.0453 14.8236L75.5502 12.8884ZM72.1477 11.7884C71.435 11.4755 70.8056 10.9852 70.2586 10.2924L68.6889 11.5316C69.4219 12.4601 70.3071 13.1645 71.3438 13.6196L72.1477 11.7884ZM70.2762 10.3153C69.8229 9.70572 69.5458 8.82759 69.5458 7.584H67.5458C67.5458 9.11375 67.8872 10.4543 68.6713 11.5087L70.2762 10.3153ZM69.5458 7.584C69.5458 6.54694 69.8065 5.66423 70.3087 4.90231L68.6388 3.80169C67.9036 4.9171 67.5458 6.18906 67.5458 7.584H69.5458ZM70.3087 4.90231C70.8159 4.13274 71.5295 3.52487 72.4848 3.08396L71.6467 1.26804C70.3833 1.85112 69.3689 2.69392 68.6388 3.80169L70.3087 4.90231ZM72.4783 3.08695C73.4593 2.64272 74.6056 2.408 75.9378 2.408V0.407999C74.3686 0.407999 72.9336 0.685274 71.6532 1.26504L72.4783 3.08695ZM75.9378 2.408C77.8587 2.408 79.3306 2.88559 80.4377 3.76056L81.6778 2.19144C80.1396 0.975743 78.1981 0.407999 75.9378 0.407999V2.408ZM80.4438 3.76535C81.5666 4.6386 82.1903 5.77305 82.3346 7.23429L84.3249 7.03771C84.1279 5.04295 83.2369 3.40406 81.6717 2.18665L80.4438 3.76535ZM83.3298 6.136H80.1298V8.136H83.3298V6.136ZM81.122 7.01197C80.9776 5.85665 80.3665 4.89029 79.4156 4.11924L78.1559 5.67276C78.7837 6.18171 79.0686 6.70868 79.1375 7.26003L81.122 7.01197ZM79.428 4.12948C78.4153 3.28101 77.1224 2.904 75.6498 2.904V4.904C76.7798 4.904 77.5776 5.18832 78.1435 5.66252L79.428 4.12948ZM75.6498 2.904C74.2523 2.904 73.0179 3.27552 72.0336 4.09578L73.3139 5.63222C73.8656 5.17248 74.6152 4.904 75.6498 4.904V2.904ZM72.0464 4.08524C71.0065 4.92298 70.5218 6.10463 70.5218 7.488H72.5218C72.5218 6.61003 72.805 6.04235 73.3011 5.64275L72.0464 4.08524ZM70.5218 7.488C70.5218 8.49209 70.8042 9.40256 71.4412 10.1305L72.9463 8.81349C72.6873 8.51744 72.5218 8.10524 72.5218 7.488H70.5218ZM71.4566 10.1477C72.0268 10.7697 72.7129 11.2469 73.503 11.5782L74.2765 9.7338C73.7439 9.51048 73.2994 9.19827 72.9309 8.79627L71.4566 10.1477ZM73.5386 11.5923C74.2602 11.8629 75.2408 12.1705 76.4675 12.5148L77.008 10.5892C75.8027 10.2509 74.8846 9.96108 74.2409 9.71967L73.5386 11.5923ZM76.4723 12.5161C77.9183 12.9143 79.0474 13.3036 79.8776 13.6791L80.7019 11.8569C79.7401 11.4218 78.5012 11.0004 77.0032 10.5879L76.4723 12.5161ZM79.8958 13.6871C80.6227 13.9986 81.2571 14.4945 81.8011 15.2017L83.3864 13.9823C82.6504 13.0255 81.7488 12.3054 80.6837 11.8489L79.8958 13.6871ZM81.8089 15.2116C82.2665 15.7913 82.5538 16.6559 82.5538 17.92H84.5538C84.5538 16.3681 84.201 15.014 83.3786 13.9724L81.8089 15.2116ZM82.5538 17.92C82.5538 18.8213 82.3178 19.6682 81.8323 20.4775L83.5472 21.5065C84.2137 20.3958 84.5538 19.1947 84.5538 17.92H82.5538ZM81.8323 20.4775C81.3629 21.2597 80.6553 21.9194 79.6626 22.4438L80.5969 24.2122C81.8655 23.542 82.8646 22.6443 83.5472 21.5065L81.8323 20.4775ZM79.6626 22.4438C78.7022 22.9512 77.5355 23.224 76.1298 23.224V25.224C77.796 25.224 79.296 24.8995 80.5969 24.2122L79.6626 22.4438ZM100.127 7.008L99.6519 7.8879L99.6587 7.89161L99.6656 7.89522L100.127 7.008ZM102.623 9.536L101.739 10.0031L101.742 10.0096L101.746 10.016L102.623 9.536ZM103.551 24V25H104.551V24H103.551ZM100.671 24H99.671V25H100.671V24ZM99.359 10.08L98.6273 10.7618L98.6353 10.7701L99.359 10.08ZM92.095 10.112L91.372 9.42109L91.3639 9.42968L92.095 10.112ZM90.751 24V25H91.751V24H90.751ZM87.839 24H86.839V25H87.839V24ZM87.839 0.32V-0.68H86.839V0.32H87.839ZM90.751 0.32H91.751V-0.68H90.751V0.32ZM90.751 8.96H89.751V12.3648L91.5922 9.50076L90.751 8.96ZM93.119 6.88L92.6869 5.97815L92.6794 5.98178L93.119 6.88ZM96.543 7.144C97.7152 7.144 98.7442 7.39777 99.6519 7.8879L100.602 6.12809C99.3765 5.46623 98.0161 5.144 96.543 5.144V7.144ZM99.6656 7.89522C100.54 8.34998 101.23 9.04014 101.739 10.0031L103.507 9.06888C102.821 7.77052 101.847 6.77535 100.588 6.12078L99.6656 7.89522ZM101.746 10.016C102.266 10.9663 102.551 12.168 102.551 13.664H104.551C104.551 11.9174 104.218 10.3671 103.5 9.05599L101.746 10.016ZM102.551 13.664V24H104.551V13.664H102.551ZM103.551 23H100.671V25H103.551V23ZM101.671 24V14.08H99.671V24H101.671ZM101.671 14.08C101.671 12.1726 101.193 10.5543 100.083 9.38992L98.6353 10.7701C99.2744 11.4404 99.671 12.4887 99.671 14.08H101.671ZM100.091 9.39827C98.9926 8.2199 97.5126 7.672 95.775 7.672V9.672C97.0667 9.672 97.9761 10.0628 98.6274 10.7617L100.091 9.39827ZM95.775 7.672C94.0126 7.672 92.508 8.2323 91.372 9.42114L92.818 10.8029C93.5167 10.0717 94.4654 9.672 95.775 9.672V7.672ZM91.3639 9.42968C90.2367 10.6375 89.751 12.3172 89.751 14.304H91.751C91.751 12.6215 92.1613 11.5065 92.8261 10.7943L91.3639 9.42968ZM89.751 14.304V24H91.751V14.304H89.751ZM90.751 23H87.839V25H90.751V23ZM88.839 24V0.32H86.839V24H88.839ZM87.839 1.32H90.751V-0.68H87.839V1.32ZM89.751 0.32V8.96H91.751V0.32H89.751ZM91.5922 9.50076C92.0646 8.76587 92.7117 8.19265 93.5586 7.77822L92.6794 5.98178C91.521 6.54868 90.5894 7.36213 89.9098 8.41924L91.5922 9.50076ZM93.5511 7.78182C94.4262 7.36251 95.4175 7.144 96.543 7.144V5.144C95.1512 5.144 93.8598 5.41616 92.6869 5.97818L93.5511 7.78182ZM108.308 10.464L109.188 10.9389L109.191 10.9332L108.308 10.464ZM111.284 7.296L110.78 6.4322L110.774 6.43594L111.284 7.296ZM119.54 7.168L119.035 8.03119L119.035 8.03119L119.54 7.168ZM122.068 9.664L121.193 10.1481L123.068 9.664H122.068ZM122.068 6.464V5.464H121.068V6.464H122.068ZM125.012 6.464H126.012V5.464H125.012V6.464ZM125.012 24V25H126.012V24H125.012ZM122.068 24H121.068V25H122.068V24ZM122.068 20.736H123.068V16.9185L121.196 20.2457L122.068 20.736ZM119.476 23.296L119.981 24.1592L119.986 24.1563L119.476 23.296ZM111.284 23.136L110.763 23.9896L110.763 23.9896L111.284 23.136ZM108.308 19.904L109.194 19.4405L109.194 19.4405L108.308 19.904ZM119.092 9.504L118.58 10.3633L118.592 10.3704L118.604 10.3772L119.092 9.504ZM113.14 9.472L112.644 8.60376L112.644 8.60376L113.14 9.472ZM110.996 11.712L111.874 12.1895L111.874 12.1895L110.996 11.712ZM110.996 18.688L110.113 19.1576L110.117 19.1655L110.996 18.688ZM113.14 20.96L112.628 21.8193L112.636 21.8238L112.644 21.8282L113.14 20.96ZM119.092 20.96L119.588 21.8283L119.594 21.8245L119.092 20.96ZM121.268 18.688L122.146 19.1655L122.151 19.1576L121.268 18.688ZM108.22 15.168C108.22 13.513 108.554 12.1136 109.188 10.9389L107.428 9.98907C106.611 11.5024 106.22 13.239 106.22 15.168H108.22ZM109.191 10.9332C109.835 9.72032 110.702 8.80374 111.794 8.15605L110.774 6.43594C109.348 7.28159 108.231 8.47701 107.425 9.99484L109.191 10.9332ZM111.788 8.15978C112.907 7.50694 114.15 7.176 115.54 7.176V5.176C113.815 5.176 112.221 5.59173 110.78 6.43222L111.788 8.15978ZM115.54 7.176C116.929 7.176 118.082 7.47386 119.035 8.03119L120.045 6.30481C118.736 5.53947 117.222 5.176 115.54 5.176V7.176ZM119.035 8.03119C120.033 8.61496 120.737 9.32421 121.193 10.1481L122.943 9.17994C122.289 7.99846 121.308 7.0437 120.045 6.30481L119.035 8.03119ZM123.068 9.664V6.464H121.068V9.664H123.068ZM122.068 7.464H125.012V5.464H122.068V7.464ZM124.012 6.464V24H126.012V6.464H124.012ZM125.012 23H122.068V25H125.012V23ZM123.068 24V20.736H121.068V24H123.068ZM121.196 20.2457C120.718 21.0964 119.988 21.8298 118.966 22.4357L119.986 24.1563C121.267 23.3969 122.266 22.4236 122.939 21.2263L121.196 20.2457ZM118.971 22.4328C118.016 22.9913 116.873 23.288 115.508 23.288V25.288C117.172 25.288 118.674 24.9233 119.981 24.1592L118.971 22.4328ZM115.508 23.288C114.123 23.288 112.897 22.9492 111.805 22.2824L110.763 23.9896C112.187 24.8588 113.777 25.288 115.508 25.288V23.288ZM111.805 22.2824C110.71 21.6147 109.84 20.6767 109.194 19.4405L107.422 20.3675C108.226 21.9047 109.34 23.1213 110.763 23.9896L111.805 22.2824ZM109.194 19.4405C108.553 18.2147 108.22 16.7987 108.22 15.168H106.22C106.22 17.0786 106.612 18.8199 107.422 20.3675L109.194 19.4405ZM123.068 15.2C123.068 13.7413 122.773 12.4192 122.146 11.2665L120.389 12.2215C120.829 13.0315 121.068 14.0134 121.068 15.2H123.068ZM122.146 11.2665C121.529 10.1299 120.672 9.24093 119.579 8.6308L118.604 10.3772C119.346 10.7911 119.94 11.3955 120.389 12.2215L122.146 11.2665ZM119.603 8.64471C118.546 8.01519 117.376 7.704 116.116 7.704V9.704C117.032 9.704 117.846 9.92614 118.58 10.3633L119.603 8.64471ZM116.116 7.704C114.864 7.704 113.699 8.00067 112.644 8.60376L113.636 10.3402C114.372 9.91932 115.192 9.704 116.116 9.704V7.704ZM112.644 8.60376C111.573 9.21551 110.732 10.1039 110.117 11.2345L111.874 12.1895C112.327 11.3575 112.914 10.7525 113.636 10.3402L112.644 8.60376ZM110.117 11.2345C109.491 12.3872 109.196 13.7093 109.196 15.168H111.196C111.196 13.9814 111.434 12.9995 111.874 12.1895L110.117 11.2345ZM109.196 15.168C109.196 16.6458 109.49 17.986 110.113 19.1576L111.879 18.2184C111.435 17.3847 111.196 16.3782 111.196 15.168H109.196ZM110.117 19.1655C110.73 20.2931 111.567 21.1875 112.628 21.8193L113.651 20.1007C112.921 19.6659 112.328 19.0455 111.874 18.2105L110.117 19.1655ZM112.644 21.8282C113.699 22.4313 114.864 22.728 116.116 22.728V20.728C115.192 20.728 114.372 20.5127 113.636 20.0918L112.644 21.8282ZM116.116 22.728C117.368 22.728 118.532 22.4313 119.588 21.8282L118.596 20.0918C117.859 20.5127 117.04 20.728 116.116 20.728V22.728ZM119.594 21.8245C120.679 21.1941 121.53 20.299 122.146 19.1655L120.389 18.2105C119.938 19.0396 119.34 19.6592 118.589 20.0955L119.594 21.8245ZM122.151 19.1576C122.773 17.9882 123.068 16.6594 123.068 15.2H121.068C121.068 16.386 120.83 17.3824 120.385 18.2184L122.151 19.1576ZM132.845 9.312H131.845L133.735 9.76678L132.845 9.312ZM135.021 6.976L134.52 6.11009L134.512 6.11507L135.021 6.976ZM138.509 6.144H139.509V5.144H138.509V6.144ZM138.509 9.152V10.152H139.509V9.152H138.509ZM132.845 24V25H133.845V24H132.845ZM129.933 24H128.933V25H129.933V24ZM129.933 6.464V5.464H128.933V6.464H129.933ZM132.845 6.464H133.845V5.464H132.845V6.464ZM133.735 9.76678C134.164 8.92715 134.76 8.29189 135.529 7.83693L134.512 6.11507C133.405 6.76945 132.549 7.69151 131.954 8.85722L133.735 9.76678ZM135.521 7.84186C136.297 7.39327 137.279 7.144 138.509 7.144V5.144C137.008 5.144 135.664 5.44939 134.52 6.11013L135.521 7.84186ZM137.509 6.144V9.152H139.509V6.144H137.509ZM138.509 8.152H137.741V10.152H138.509V8.152ZM137.741 8.152C135.933 8.152 134.399 8.6462 133.333 9.80227C132.282 10.9429 131.845 12.5585 131.845 14.464H133.845C133.845 12.8282 134.223 11.7877 134.804 11.1577C135.371 10.5431 136.285 10.152 137.741 10.152V8.152ZM131.845 14.464V24H133.845V14.464H131.845ZM132.845 23H129.933V25H132.845V23ZM130.933 24V6.464H128.933V24H130.933ZM129.933 7.464H132.845V5.464H129.933V7.464ZM131.845 6.464V9.312H133.845V6.464H131.845ZM141.87 10.464L142.75 10.9389L142.753 10.9332L141.87 10.464ZM144.846 7.296L144.342 6.4322L144.336 6.43594L144.846 7.296ZM152.942 7.136L152.463 8.01398L152.476 8.02057L152.942 7.136ZM155.63 9.6L154.774 10.1171L156.63 13.189V9.6H155.63ZM155.63 0.32V-0.68H154.63V0.32H155.63ZM158.574 0.32H159.574V-0.68H158.574V0.32ZM158.574 24V25H159.574V24H158.574ZM155.63 24H154.63V25H155.63V24ZM155.63 20.704H156.63L154.754 20.2214L155.63 20.704ZM153.07 23.296L153.575 24.1593L153.587 24.1521L153.07 23.296ZM144.846 23.136L144.325 23.9897L144.332 23.9935L144.846 23.136ZM141.87 19.904L142.756 19.4405L142.756 19.4405L141.87 19.904ZM152.654 9.504L152.143 10.3633L152.155 10.3704L152.167 10.3772L152.654 9.504ZM146.702 9.472L146.206 8.60376L146.206 8.60376L146.702 9.472ZM144.558 11.712L145.437 12.1895L145.437 12.1895L144.558 11.712ZM144.558 18.688L143.675 19.1576L143.68 19.1655L144.558 18.688ZM146.702 20.96L146.191 21.8193L146.198 21.8238L146.206 21.8282L146.702 20.96ZM152.654 20.96L153.15 21.8283L153.157 21.8245L152.654 20.96ZM154.83 18.688L155.709 19.1655L155.713 19.1576L154.83 18.688ZM141.782 15.168C141.782 13.513 142.116 12.1136 142.75 10.9389L140.99 9.98907C140.174 11.5024 139.782 13.239 139.782 15.168H141.782ZM142.753 10.9332C143.398 9.72032 144.265 8.80374 145.356 8.15605L144.336 6.43594C142.911 7.28159 141.793 8.47701 140.987 9.99484L142.753 10.9332ZM145.35 8.15978C146.467 7.50818 147.721 7.176 149.134 7.176V5.176C147.391 5.176 145.785 5.59048 144.342 6.43222L145.35 8.15978ZM149.134 7.176C150.336 7.176 151.44 7.4558 152.463 8.01389L153.421 6.2581C152.098 5.5362 150.663 5.176 149.134 5.176V7.176ZM152.476 8.02057C153.506 8.56392 154.26 9.26526 154.774 10.1171L156.486 9.08288C155.763 7.88674 154.725 6.94541 153.409 6.25143L152.476 8.02057ZM156.63 9.6V0.32H154.63V9.6H156.63ZM155.63 1.32H158.574V-0.68H155.63V1.32ZM157.574 0.32V24H159.574V0.32H157.574ZM158.574 23H155.63V25H158.574V23ZM156.63 24V20.704H154.63V24H156.63ZM154.754 20.2214C154.272 21.0969 153.55 21.8381 152.553 22.4399L153.587 24.1521C154.852 23.3885 155.836 22.4018 156.506 21.1866L154.754 20.2214ZM152.565 22.4328C151.61 22.9913 150.468 23.288 149.102 23.288V25.288C150.766 25.288 152.269 24.9233 153.575 24.1592L152.565 22.4328ZM149.102 23.288C147.718 23.288 146.478 22.9491 145.361 22.2785L144.332 23.9935C145.774 24.8589 147.372 25.288 149.102 25.288V23.288ZM145.367 22.2824C144.273 21.6147 143.403 20.6767 142.756 19.4405L140.984 20.3675C141.788 21.9047 142.902 23.1213 144.325 23.9896L145.367 22.2824ZM142.756 19.4405C142.115 18.2147 141.782 16.7987 141.782 15.168H139.782C139.782 17.0786 140.175 18.8199 140.984 20.3675L142.756 19.4405ZM156.63 15.2C156.63 13.7413 156.335 12.4192 155.709 11.2665L153.952 12.2215C154.392 13.0315 154.63 14.0134 154.63 15.2H156.63ZM155.709 11.2665C155.091 10.1299 154.235 9.24093 153.142 8.6308L152.167 10.3772C152.908 10.7911 153.503 11.3955 153.952 12.2215L155.709 11.2665ZM153.166 8.64471C152.108 8.01519 150.938 7.704 149.678 7.704V9.704C150.594 9.704 151.408 9.92614 152.143 10.3633L153.166 8.64471ZM149.678 7.704C148.426 7.704 147.262 8.00067 146.206 8.60376L147.198 10.3402C147.935 9.91932 148.754 9.704 149.678 9.704V7.704ZM146.206 8.60376C145.136 9.21551 144.294 10.1039 143.68 11.2345L145.437 12.1895C145.889 11.3575 146.477 10.7525 147.198 10.3402L146.206 8.60376ZM143.68 11.2345C143.053 12.3872 142.758 13.7093 142.758 15.168H144.758C144.758 13.9814 144.997 12.9995 145.437 12.1895L143.68 11.2345ZM142.758 15.168C142.758 16.6458 143.052 17.986 143.675 19.1576L145.441 18.2184C144.998 17.3847 144.758 16.3782 144.758 15.168H142.758ZM143.68 19.1655C144.292 20.2931 145.129 21.1875 146.191 21.8193L147.214 20.1007C146.483 19.6659 145.891 19.0455 145.437 18.2105L143.68 19.1655ZM146.206 21.8282C147.262 22.4313 148.426 22.728 149.678 22.728V20.728C148.754 20.728 147.935 20.5127 147.198 20.0918L146.206 21.8282ZM149.678 22.728C150.93 22.728 152.095 22.4313 153.15 21.8282L152.158 20.0918C151.422 20.5127 150.602 20.728 149.678 20.728V22.728ZM153.157 21.8245C154.241 21.1941 155.093 20.299 155.709 19.1655L153.952 18.2105C153.501 19.0396 152.902 19.6592 152.152 20.0955L153.157 21.8245ZM155.713 19.1576C156.335 17.9882 156.63 16.6594 156.63 15.2H154.63C154.63 16.386 154.392 17.3824 153.947 18.2184L155.713 19.1576Z" fill="black" mask="url(#path-1-outside-1_632_30)"/>
</svg>
