<svg width="317" height="49" viewBox="0 0 317 49" fill="none" xmlns="http://www.w3.org/2000/svg">
<mask id="path-1-outside-1_632_30" maskUnits="userSpaceOnUse" x="-1" y="-1" width="319" height="52" fill="black">
<rect fill="white" x="-1" y="-1" width="319" height="52"/>
<path d="M16.072 48.448C13.128 48.448 10.4827 47.936 8.136 46.912C5.832 45.8453 4.01867 44.3947 2.696 42.56C1.37333 40.6827 0.690667 38.528 0.648 36.096H6.856C7.06933 38.1867 7.92267 39.9573 9.416 41.408C10.952 42.816 13.1707 43.52 16.072 43.52C18.8453 43.52 21.0213 42.8373 22.6 41.472C24.2213 40.064 25.032 38.272 25.032 36.096C25.032 34.3893 24.5627 33.0027 23.624 31.936C22.6853 30.8693 21.512 30.0587 20.104 29.504C18.696 28.9493 16.7973 28.352 14.408 27.712C11.464 26.944 9.096 26.176 7.304 25.408C5.55467 24.64 4.04 23.4453 2.76 21.824C1.52267 20.16 0.904 17.9413 0.904 15.168C0.904 12.736 1.52267 10.5813 2.76 8.704C3.99733 6.82666 5.72533 5.376 7.944 4.352C10.2053 3.328 12.7867 2.816 15.688 2.816C19.8693 2.816 23.2827 3.86133 25.928 5.952C28.616 8.04266 30.1307 10.816 30.472 14.272H24.072C23.8587 12.5653 22.9627 11.072 21.384 9.792C19.8053 8.46933 17.7147 7.808 15.112 7.808C12.68 7.808 10.696 8.448 9.16 9.728C7.624 10.9653 6.856 12.7147 6.856 14.976C6.856 16.5973 7.304 17.92 8.2 18.944C9.13867 19.968 10.2693 20.7573 11.592 21.312C12.9573 21.824 14.856 22.4213 17.288 23.104C20.232 23.9147 22.6 24.7253 24.392 25.536C26.184 26.304 27.72 27.52 29 29.184C30.28 30.8053 30.92 33.024 30.92 35.84C30.92 38.016 30.344 40.064 29.192 41.984C28.04 43.904 26.3333 45.4613 24.072 46.656C21.8107 47.8507 19.144 48.448 16.072 48.448ZM37.3145 30.336C37.3145 26.752 38.0398 23.616 39.4905 20.928C40.9412 18.1973 42.9252 16.0853 45.4425 14.592C48.0025 13.0987 50.8398 12.352 53.9545 12.352C57.0265 12.352 59.6932 13.0133 61.9545 14.336C64.2158 15.6587 65.9012 17.3227 67.0105 19.328V12.928H72.8985V48H67.0105V41.472C65.8585 43.52 64.1305 45.2267 61.8265 46.592C59.5652 47.9147 56.9198 48.576 53.8905 48.576C50.7758 48.576 47.9598 47.808 45.4425 46.272C42.9252 44.736 40.9412 42.5813 39.4905 39.808C38.0398 37.0347 37.3145 33.8773 37.3145 30.336ZM67.0105 30.4C67.0105 27.7547 66.4772 25.4507 65.4105 23.488C64.3438 21.5253 62.8932 20.032 61.0585 19.008C59.2665 17.9413 57.2825 17.408 55.1065 17.408C52.9305 17.408 50.9465 17.92 49.1545 18.944C47.3625 19.968 45.9332 21.4613 44.8665 23.424C43.7998 25.3867 43.2665 27.6907 43.2665 30.336C43.2665 33.024 43.7998 35.3707 44.8665 37.376C45.9332 39.3387 47.3625 40.8533 49.1545 41.92C50.9465 42.944 52.9305 43.456 55.1065 43.456C57.2825 43.456 59.2665 42.944 61.0585 41.92C62.8932 40.8533 64.3438 39.3387 65.4105 37.376C66.4772 35.3707 67.0105 33.0453 67.0105 30.4ZM99.8285 12.288C104.095 12.288 107.551 13.5893 110.197 16.192C112.842 18.752 114.165 22.464 114.165 27.328V48H108.405V28.16C108.405 24.6613 107.53 21.9947 105.781 20.16C104.031 18.2827 101.642 17.344 98.6125 17.344C95.5405 17.344 93.0872 18.304 91.2525 20.224C89.4605 22.144 88.5645 24.9387 88.5645 28.608V48H82.7405V12.928H88.5645V17.92C89.7165 16.128 91.2738 14.7413 93.2365 13.76C95.2418 12.7787 97.4392 12.288 99.8285 12.288ZM125.534 48.384C124.425 48.384 123.486 48 122.718 47.232C121.95 46.464 121.566 45.5253 121.566 44.416C121.566 43.3067 121.95 42.368 122.718 41.6C123.486 40.832 124.425 40.448 125.534 40.448C126.601 40.448 127.497 40.832 128.222 41.6C128.99 42.368 129.374 43.3067 129.374 44.416C129.374 45.5253 128.99 46.464 128.222 47.232C127.497 48 126.601 48.384 125.534 48.384ZM151.26 48.448C148.316 48.448 145.67 47.936 143.324 46.912C141.02 45.8453 139.206 44.3947 137.884 42.56C136.561 40.6827 135.878 38.528 135.836 36.096H142.044C142.257 38.1867 143.11 39.9573 144.604 41.408C146.14 42.816 148.358 43.52 151.26 43.52C154.033 43.52 156.209 42.8373 157.788 41.472C159.409 40.064 160.22 38.272 160.22 36.096C160.22 34.3893 159.75 33.0027 158.812 31.936C157.873 30.8693 156.7 30.0587 155.292 29.504C153.884 28.9493 151.985 28.352 149.596 27.712C146.652 26.944 144.284 26.176 142.492 25.408C140.742 24.64 139.228 23.4453 137.948 21.824C136.71 20.16 136.092 17.9413 136.092 15.168C136.092 12.736 136.71 10.5813 137.948 8.704C139.185 6.82666 140.913 5.376 143.132 4.352C145.393 3.328 147.974 2.816 150.876 2.816C155.057 2.816 158.47 3.86133 161.116 5.952C163.804 8.04266 165.318 10.816 165.66 14.272H159.26C159.046 12.5653 158.15 11.072 156.572 9.792C154.993 8.46933 152.902 7.808 150.3 7.808C147.868 7.808 145.884 8.448 144.348 9.728C142.812 10.9653 142.044 12.7147 142.044 14.976C142.044 16.5973 142.492 17.92 143.388 18.944C144.326 19.968 145.457 20.7573 146.78 21.312C148.145 21.824 150.044 22.4213 152.476 23.104C155.42 23.9147 157.788 24.7253 159.58 25.536C161.372 26.304 162.908 27.52 164.188 29.184C165.468 30.8053 166.108 33.024 166.108 35.84C166.108 38.016 165.532 40.064 164.38 41.984C163.228 43.904 161.521 45.4613 159.26 46.656C156.998 47.8507 154.332 48.448 151.26 48.448ZM192.086 12.288C194.731 12.288 197.121 12.864 199.254 14.016C201.387 15.1253 203.051 16.8107 204.246 19.072C205.483 21.3333 206.102 24.0853 206.102 27.328V48H200.342V28.16C200.342 24.6613 199.467 21.9947 197.718 20.16C195.969 18.2827 193.579 17.344 190.55 17.344C187.478 17.344 185.025 18.304 183.19 20.224C181.398 22.144 180.502 24.9387 180.502 28.608V48H174.678V0.639999H180.502V17.92C181.654 16.128 183.233 14.7413 185.238 13.76C187.286 12.7787 189.569 12.288 192.086 12.288ZM213.44 30.336C213.44 26.752 214.165 23.616 215.616 20.928C217.066 18.1973 219.05 16.0853 221.568 14.592C224.128 13.0987 226.965 12.352 230.08 12.352C233.152 12.352 235.818 13.0133 238.08 14.336C240.341 15.6587 242.026 17.3227 243.136 19.328V12.928H249.024V48H243.136V41.472C241.984 43.52 240.256 45.2267 237.952 46.592C235.69 47.9147 233.045 48.576 230.016 48.576C226.901 48.576 224.085 47.808 221.568 46.272C219.05 44.736 217.066 42.5813 215.616 39.808C214.165 37.0347 213.44 33.8773 213.44 30.336ZM243.136 30.4C243.136 27.7547 242.602 25.4507 241.536 23.488C240.469 21.5253 239.018 20.032 237.184 19.008C235.392 17.9413 233.408 17.408 231.232 17.408C229.056 17.408 227.072 17.92 225.28 18.944C223.488 19.968 222.058 21.4613 220.992 23.424C219.925 25.3867 219.392 27.6907 219.392 30.336C219.392 33.024 219.925 35.3707 220.992 37.376C222.058 39.3387 223.488 40.8533 225.28 41.92C227.072 42.944 229.056 43.456 231.232 43.456C233.408 43.456 235.392 42.944 237.184 41.92C239.018 40.8533 240.469 39.3387 241.536 37.376C242.602 35.3707 243.136 33.0453 243.136 30.4ZM264.69 18.624C265.714 16.6187 267.164 15.0613 269.042 13.952C270.962 12.8427 273.287 12.288 276.018 12.288V18.304H274.482C267.954 18.304 264.69 21.8453 264.69 28.928V48H258.866V12.928H264.69V18.624ZM280.565 30.336C280.565 26.752 281.29 23.616 282.741 20.928C284.191 18.1973 286.175 16.0853 288.693 14.592C291.253 13.0987 294.111 12.352 297.269 12.352C299.999 12.352 302.538 12.992 304.885 14.272C307.231 15.5093 309.023 17.152 310.261 19.2V0.639999H316.149V48H310.261V41.408C309.109 43.4987 307.402 45.2267 305.141 46.592C302.879 47.9147 300.234 48.576 297.205 48.576C294.09 48.576 291.253 47.808 288.693 46.272C286.175 44.736 284.191 42.5813 282.741 39.808C281.29 37.0347 280.565 33.8773 280.565 30.336ZM310.261 30.4C310.261 27.7547 309.727 25.4507 308.661 23.488C307.594 21.5253 306.143 20.032 304.309 19.008C302.517 17.9413 300.533 17.408 298.357 17.408C296.181 17.408 294.197 17.92 292.405 18.944C290.613 19.968 289.183 21.4613 288.117 23.424C287.05 25.3867 286.517 27.6907 286.517 30.336C286.517 33.024 287.05 35.3707 288.117 37.376C289.183 39.3387 290.613 40.8533 292.405 41.92C294.197 42.944 296.181 43.456 298.357 43.456C300.533 43.456 302.517 42.944 304.309 41.92C306.143 40.8533 307.594 39.3387 308.661 37.376C309.727 35.3707 310.261 33.0453 310.261 30.4Z"/>
</mask>
<path d="M16.072 48.448C13.128 48.448 10.4827 47.936 8.136 46.912C5.832 45.8453 4.01867 44.3947 2.696 42.56C1.37333 40.6827 0.690667 38.528 0.648 36.096H6.856C7.06933 38.1867 7.92267 39.9573 9.416 41.408C10.952 42.816 13.1707 43.52 16.072 43.52C18.8453 43.52 21.0213 42.8373 22.6 41.472C24.2213 40.064 25.032 38.272 25.032 36.096C25.032 34.3893 24.5627 33.0027 23.624 31.936C22.6853 30.8693 21.512 30.0587 20.104 29.504C18.696 28.9493 16.7973 28.352 14.408 27.712C11.464 26.944 9.096 26.176 7.304 25.408C5.55467 24.64 4.04 23.4453 2.76 21.824C1.52267 20.16 0.904 17.9413 0.904 15.168C0.904 12.736 1.52267 10.5813 2.76 8.704C3.99733 6.82666 5.72533 5.376 7.944 4.352C10.2053 3.328 12.7867 2.816 15.688 2.816C19.8693 2.816 23.2827 3.86133 25.928 5.952C28.616 8.04266 30.1307 10.816 30.472 14.272H24.072C23.8587 12.5653 22.9627 11.072 21.384 9.792C19.8053 8.46933 17.7147 7.808 15.112 7.808C12.68 7.808 10.696 8.448 9.16 9.728C7.624 10.9653 6.856 12.7147 6.856 14.976C6.856 16.5973 7.304 17.92 8.2 18.944C9.13867 19.968 10.2693 20.7573 11.592 21.312C12.9573 21.824 14.856 22.4213 17.288 23.104C20.232 23.9147 22.6 24.7253 24.392 25.536C26.184 26.304 27.72 27.52 29 29.184C30.28 30.8053 30.92 33.024 30.92 35.84C30.92 38.016 30.344 40.064 29.192 41.984C28.04 43.904 26.3333 45.4613 24.072 46.656C21.8107 47.8507 19.144 48.448 16.072 48.448ZM37.3145 30.336C37.3145 26.752 38.0398 23.616 39.4905 20.928C40.9412 18.1973 42.9252 16.0853 45.4425 14.592C48.0025 13.0987 50.8398 12.352 53.9545 12.352C57.0265 12.352 59.6932 13.0133 61.9545 14.336C64.2158 15.6587 65.9012 17.3227 67.0105 19.328V12.928H72.8985V48H67.0105V41.472C65.8585 43.52 64.1305 45.2267 61.8265 46.592C59.5652 47.9147 56.9198 48.576 53.8905 48.576C50.7758 48.576 47.9598 47.808 45.4425 46.272C42.9252 44.736 40.9412 42.5813 39.4905 39.808C38.0398 37.0347 37.3145 33.8773 37.3145 30.336ZM67.0105 30.4C67.0105 27.7547 66.4772 25.4507 65.4105 23.488C64.3438 21.5253 62.8932 20.032 61.0585 19.008C59.2665 17.9413 57.2825 17.408 55.1065 17.408C52.9305 17.408 50.9465 17.92 49.1545 18.944C47.3625 19.968 45.9332 21.4613 44.8665 23.424C43.7998 25.3867 43.2665 27.6907 43.2665 30.336C43.2665 33.024 43.7998 35.3707 44.8665 37.376C45.9332 39.3387 47.3625 40.8533 49.1545 41.92C50.9465 42.944 52.9305 43.456 55.1065 43.456C57.2825 43.456 59.2665 42.944 61.0585 41.92C62.8932 40.8533 64.3438 39.3387 65.4105 37.376C66.4772 35.3707 67.0105 33.0453 67.0105 30.4ZM99.8285 12.288C104.095 12.288 107.551 13.5893 110.197 16.192C112.842 18.752 114.165 22.464 114.165 27.328V48H108.405V28.16C108.405 24.6613 107.53 21.9947 105.781 20.16C104.031 18.2827 101.642 17.344 98.6125 17.344C95.5405 17.344 93.0872 18.304 91.2525 20.224C89.4605 22.144 88.5645 24.9387 88.5645 28.608V48H82.7405V12.928H88.5645V17.92C89.7165 16.128 91.2738 14.7413 93.2365 13.76C95.2418 12.7787 97.4392 12.288 99.8285 12.288ZM125.534 48.384C124.425 48.384 123.486 48 122.718 47.232C121.95 46.464 121.566 45.5253 121.566 44.416C121.566 43.3067 121.95 42.368 122.718 41.6C123.486 40.832 124.425 40.448 125.534 40.448C126.601 40.448 127.497 40.832 128.222 41.6C128.99 42.368 129.374 43.3067 129.374 44.416C129.374 45.5253 128.99 46.464 128.222 47.232C127.497 48 126.601 48.384 125.534 48.384ZM151.26 48.448C148.316 48.448 145.67 47.936 143.324 46.912C141.02 45.8453 139.206 44.3947 137.884 42.56C136.561 40.6827 135.878 38.528 135.836 36.096H142.044C142.257 38.1867 143.11 39.9573 144.604 41.408C146.14 42.816 148.358 43.52 151.26 43.52C154.033 43.52 156.209 42.8373 157.788 41.472C159.409 40.064 160.22 38.272 160.22 36.096C160.22 34.3893 159.75 33.0027 158.812 31.936C157.873 30.8693 156.7 30.0587 155.292 29.504C153.884 28.9493 151.985 28.352 149.596 27.712C146.652 26.944 144.284 26.176 142.492 25.408C140.742 24.64 139.228 23.4453 137.948 21.824C136.71 20.16 136.092 17.9413 136.092 15.168C136.092 12.736 136.71 10.5813 137.948 8.704C139.185 6.82666 140.913 5.376 143.132 4.352C145.393 3.328 147.974 2.816 150.876 2.816C155.057 2.816 158.47 3.86133 161.116 5.952C163.804 8.04266 165.318 10.816 165.66 14.272H159.26C159.046 12.5653 158.15 11.072 156.572 9.792C154.993 8.46933 152.902 7.808 150.3 7.808C147.868 7.808 145.884 8.448 144.348 9.728C142.812 10.9653 142.044 12.7147 142.044 14.976C142.044 16.5973 142.492 17.92 143.388 18.944C144.326 19.968 145.457 20.7573 146.78 21.312C148.145 21.824 150.044 22.4213 152.476 23.104C155.42 23.9147 157.788 24.7253 159.58 25.536C161.372 26.304 162.908 27.52 164.188 29.184C165.468 30.8053 166.108 33.024 166.108 35.84C166.108 38.016 165.532 40.064 164.38 41.984C163.228 43.904 161.521 45.4613 159.26 46.656C156.998 47.8507 154.332 48.448 151.26 48.448ZM192.086 12.288C194.731 12.288 197.121 12.864 199.254 14.016C201.387 15.1253 203.051 16.8107 204.246 19.072C205.483 21.3333 206.102 24.0853 206.102 27.328V48H200.342V28.16C200.342 24.6613 199.467 21.9947 197.718 20.16C195.969 18.2827 193.579 17.344 190.55 17.344C187.478 17.344 185.025 18.304 183.19 20.224C181.398 22.144 180.502 24.9387 180.502 28.608V48H174.678V0.639999H180.502V17.92C181.654 16.128 183.233 14.7413 185.238 13.76C187.286 12.7787 189.569 12.288 192.086 12.288ZM213.44 30.336C213.44 26.752 214.165 23.616 215.616 20.928C217.066 18.1973 219.05 16.0853 221.568 14.592C224.128 13.0987 226.965 12.352 230.08 12.352C233.152 12.352 235.818 13.0133 238.08 14.336C240.341 15.6587 242.026 17.3227 243.136 19.328V12.928H249.024V48H243.136V41.472C241.984 43.52 240.256 45.2267 237.952 46.592C235.69 47.9147 233.045 48.576 230.016 48.576C226.901 48.576 224.085 47.808 221.568 46.272C219.05 44.736 217.066 42.5813 215.616 39.808C214.165 37.0347 213.44 33.8773 213.44 30.336ZM243.136 30.4C243.136 27.7547 242.602 25.4507 241.536 23.488C240.469 21.5253 239.018 20.032 237.184 19.008C235.392 17.9413 233.408 17.408 231.232 17.408C229.056 17.408 227.072 17.92 225.28 18.944C223.488 19.968 222.058 21.4613 220.992 23.424C219.925 25.3867 219.392 27.6907 219.392 30.336C219.392 33.024 219.925 35.3707 220.992 37.376C222.058 39.3387 223.488 40.8533 225.28 41.92C227.072 42.944 229.056 43.456 231.232 43.456C233.408 43.456 235.392 42.944 237.184 41.92C239.018 40.8533 240.469 39.3387 241.536 37.376C242.602 35.3707 243.136 33.0453 243.136 30.4ZM264.69 18.624C265.714 16.6187 267.164 15.0613 269.042 13.952C270.962 12.8427 273.287 12.288 276.018 12.288V18.304H274.482C267.954 18.304 264.69 21.8453 264.69 28.928V48H258.866V12.928H264.69V18.624ZM280.565 30.336C280.565 26.752 281.29 23.616 282.741 20.928C284.191 18.1973 286.175 16.0853 288.693 14.592C291.253 13.0987 294.111 12.352 297.269 12.352C299.999 12.352 302.538 12.992 304.885 14.272C307.231 15.5093 309.023 17.152 310.261 19.2V0.639999H316.149V48H310.261V41.408C309.109 43.4987 307.402 45.2267 305.141 46.592C302.879 47.9147 300.234 48.576 297.205 48.576C294.09 48.576 291.253 47.808 288.693 46.272C286.175 44.736 284.191 42.5813 282.741 39.808C281.29 37.0347 280.565 33.8773 280.565 30.336ZM310.261 30.4C310.261 27.7547 309.727 25.4507 308.661 23.488C307.594 21.5253 306.143 20.032 304.309 19.008C302.517 17.9413 300.533 17.408 298.357 17.408C296.181 17.408 294.197 17.92 292.405 18.944C290.613 19.968 289.183 21.4613 288.117 23.424C287.05 25.3867 286.517 27.6907 286.517 30.336C286.517 33.024 287.05 35.3707 288.117 37.376C289.183 39.3387 290.613 40.8533 292.405 41.92C294.197 42.944 296.181 43.456 298.357 43.456C300.533 43.456 302.517 42.944 304.309 41.92C306.143 40.8533 307.594 39.3387 308.661 37.376C309.727 35.3707 310.261 33.0453 310.261 30.4Z" fill="#FFFCFC"/>
<path d="M8.136 46.912L7.50582 48.2732L7.52087 48.2802L7.53608 48.2868L8.136 46.912ZM2.696 42.56L1.46978 43.4239L1.47447 43.4306L1.47924 43.4372L2.696 42.56ZM0.648 36.096V34.596H-0.878546L-0.851769 36.1223L0.648 36.096ZM6.856 36.096L8.34825 35.9437L8.21073 34.596H6.856V36.096ZM9.416 41.408L8.37082 42.4839L8.3864 42.4991L8.40241 42.5137L9.416 41.408ZM22.6 41.472L23.5812 42.6065L23.5835 42.6045L22.6 41.472ZM23.624 31.936L22.4979 32.9269L22.4979 32.9269L23.624 31.936ZM20.104 29.504L19.5542 30.8996L19.5542 30.8996L20.104 29.504ZM14.408 27.712L14.7961 26.263L14.7866 26.2606L14.408 27.712ZM7.304 25.408L6.70099 26.7815L6.71312 26.7867L7.304 25.408ZM2.76 21.824L1.55631 22.7191L1.56924 22.7365L1.58268 22.7535L2.76 21.824ZM2.76 8.704L4.01244 9.52947L4.01244 9.52947L2.76 8.704ZM7.944 4.352L7.32522 2.98553L7.31541 2.99006L7.944 4.352ZM25.928 5.952L24.9979 7.12887L25.0071 7.13603L25.928 5.952ZM30.472 14.272V15.772H32.1274L31.9647 14.1246L30.472 14.272ZM24.072 14.272L22.5836 14.4581L22.7478 15.772H24.072V14.272ZM21.384 9.792L20.4207 10.9418L20.4299 10.9495L20.4393 10.9571L21.384 9.792ZM9.16 9.728L10.101 10.8961L10.1107 10.8883L10.1203 10.8803L9.16 9.728ZM8.2 18.944L7.07114 19.9318L7.08255 19.9448L7.09427 19.9576L8.2 18.944ZM11.592 21.312L11.0119 22.6953L11.0384 22.7064L11.0653 22.7165L11.592 21.312ZM17.288 23.104L16.8826 24.5482L16.8898 24.5502L17.288 23.104ZM24.392 25.536L23.7738 26.9027L23.7874 26.9088L23.8011 26.9147L24.392 25.536ZM29 29.184L27.8111 30.0986L27.8168 30.1061L27.8227 30.1135L29 29.184ZM29.192 41.984L30.4782 42.7557L30.4782 42.7557L29.192 41.984ZM24.072 46.656L23.3713 45.3297L24.072 46.656ZM16.072 46.948C13.3037 46.948 10.8671 46.4672 8.73592 45.5372L7.53608 48.2868C10.0983 49.4048 12.9523 49.948 16.072 49.948V46.948ZM8.76619 45.5508C6.66684 44.5789 5.06696 43.2838 3.91276 41.6828L1.47924 43.4372C2.97037 45.5056 4.99717 47.1118 7.50582 48.2732L8.76619 45.5508ZM3.92222 41.6961C2.78303 40.0791 2.1855 38.2201 2.14777 36.0697L-0.851769 36.1223C-0.804163 38.8359 -0.0363604 41.2862 1.46978 43.4239L3.92222 41.6961ZM0.648 37.596H6.856V34.596H0.648V37.596ZM5.36375 36.2483C5.61252 38.6862 6.62192 40.785 8.37082 42.4839L10.4612 40.3321C9.22342 39.1297 8.52615 37.6871 8.34825 35.9437L5.36375 36.2483ZM8.40241 42.5137C10.3075 44.2601 12.9432 45.02 16.072 45.02V42.02C13.3981 42.02 11.5965 41.3719 10.4296 40.3023L8.40241 42.5137ZM16.072 45.02C19.0857 45.02 21.6512 44.2757 23.5812 42.6065L21.6188 40.3375C20.3914 41.3989 18.6049 42.02 16.072 42.02V45.02ZM23.5835 42.6045C25.5379 40.9073 26.532 38.6998 26.532 36.096H23.532C23.532 37.8442 22.9047 39.2207 21.6165 40.3394L23.5835 42.6045ZM26.532 36.096C26.532 34.1016 25.9762 32.3384 24.7501 30.9451L22.4979 32.9269C23.1492 33.667 23.532 34.6771 23.532 36.096H26.532ZM24.7501 30.9451C23.644 29.6881 22.2685 28.7445 20.6538 28.1084L19.5542 30.8996C20.7555 31.3729 21.7267 32.0505 22.4979 32.9269L24.7501 30.9451ZM20.6538 28.1084C19.1705 27.5241 17.2106 26.9098 14.7961 26.2631L14.0199 29.1609C16.384 29.7942 18.2215 30.3746 19.5542 30.8996L20.6538 28.1084ZM14.7866 26.2606C11.8798 25.5023 9.5911 24.7562 7.89488 24.0293L6.71312 26.7867C8.60091 27.5958 11.0482 28.3857 14.0294 29.1634L14.7866 26.2606ZM7.90699 24.0345C6.40058 23.3732 5.0778 22.3391 3.93732 20.8945L1.58268 22.7535C3.00221 24.5515 4.70876 25.9068 6.70102 26.7815L7.90699 24.0345ZM3.96369 20.9289C2.97444 19.5986 2.404 17.7267 2.404 15.168H-0.596C-0.596 18.156 0.0708899 20.7214 1.55631 22.7191L3.96369 20.9289ZM2.404 15.168C2.404 13.0044 2.94984 11.1417 4.01244 9.52947L1.50756 7.87853C0.0954899 10.021 -0.596 12.4676 -0.596 15.168H2.404ZM4.01244 9.52947C5.0826 7.90578 6.58494 6.63131 8.57259 5.71394L7.31541 2.99006C4.86572 4.12068 2.91207 5.74755 1.50756 7.87853L4.01244 9.52947ZM8.56276 5.71843C10.5996 4.79609 12.9644 4.316 15.688 4.316V1.316C12.609 1.316 9.81106 1.85991 7.32524 2.98557L8.56276 5.71843ZM15.688 4.316C19.6148 4.316 22.6759 5.29372 24.9979 7.12884L26.8581 4.77516C23.8894 2.42895 20.1239 1.316 15.688 1.316V4.316ZM25.0071 7.13603C27.3632 8.96857 28.6775 11.3636 28.9793 14.4194L31.9647 14.1246C31.5839 10.2684 29.8688 7.11676 26.8489 4.76797L25.0071 7.13603ZM30.472 12.772H24.072V15.772H30.472V12.772ZM25.5604 14.0859C25.2905 11.9263 24.1498 10.1034 22.3287 8.62687L20.4393 10.9571C21.7755 12.0406 22.4269 13.2044 22.5836 14.4581L25.5604 14.0859ZM22.3473 8.64222C20.4336 7.03885 17.9716 6.308 15.112 6.308V9.308C17.4577 9.308 19.177 9.89981 20.4207 10.9418L22.3473 8.64222ZM15.112 6.308C12.4079 6.308 10.0602 7.02527 8.19972 8.57566L10.1203 10.8803C11.3318 9.87072 12.9521 9.308 15.112 9.308V6.308ZM8.21901 8.55987C6.27509 10.1258 5.356 12.3356 5.356 14.976H8.356C8.356 13.0937 8.97291 11.8049 10.101 10.8961L8.21901 8.55987ZM5.356 14.976C5.356 16.8875 5.89171 18.5838 7.07114 19.9318L9.32887 17.9562C8.71629 17.2562 8.356 16.3072 8.356 14.976H5.356ZM7.09427 19.9576C8.1842 21.1466 9.49605 22.0596 11.0119 22.6953L12.1721 19.9287C11.0426 19.4551 10.0931 18.7894 9.30573 17.9304L7.09427 19.9576ZM11.0653 22.7165C12.489 23.2504 14.4346 23.861 16.8826 24.5482L17.6934 21.6598C15.2774 20.9817 13.4256 20.3976 12.1187 19.9075L11.0653 22.7165ZM16.8898 24.5502C19.7948 25.3501 22.0805 26.1367 23.7738 26.9027L25.0103 24.1693C23.1195 23.314 20.6692 22.4792 17.6862 21.6578L16.8898 24.5502ZM23.8011 26.9147C25.3394 27.574 26.6751 28.6218 27.8111 30.0986L30.1889 28.2694C28.7649 26.4182 27.0286 25.034 24.9829 24.1573L23.8011 26.9147ZM27.8227 30.1135C28.8291 31.3883 29.42 33.2398 29.42 35.84H32.42C32.42 32.8082 31.7309 30.2223 30.1773 28.2545L27.8227 30.1135ZM29.42 35.84C29.42 37.736 28.9221 39.5183 27.9058 41.2123L30.4782 42.7557C31.7659 40.6097 32.42 38.296 32.42 35.84H29.42ZM27.9058 41.2123C26.9138 42.8655 25.4256 44.2444 23.3713 45.3297L24.7727 47.9823C27.241 46.6783 29.1662 44.9425 30.4782 42.7557L27.9058 41.2123ZM23.3713 45.3297C21.3653 46.3895 18.9486 46.948 16.072 46.948V49.948C19.3394 49.948 22.256 49.3118 24.7727 47.9823L23.3713 45.3297ZM39.4905 20.928L40.8106 21.6404L40.8152 21.6317L39.4905 20.928ZM45.4425 14.592L44.6867 13.2963L44.6772 13.3019L45.4425 14.592ZM61.9545 14.336L61.1972 15.6308L61.1972 15.6308L61.9545 14.336ZM67.0105 19.328L65.698 20.0541L68.5105 19.328H67.0105ZM67.0105 12.928V11.428H65.5105V12.928H67.0105ZM72.8985 12.928H74.3985V11.428H72.8985V12.928ZM72.8985 48V49.5H74.3985V48H72.8985ZM67.0105 48H65.5105V49.5H67.0105V48ZM67.0105 41.472H68.5105V35.7457L65.7031 40.7366L67.0105 41.472ZM61.8265 46.592L62.5838 47.8868L62.5912 47.8824L61.8265 46.592ZM45.4425 46.272L44.6612 47.5525L44.6612 47.5525L45.4425 46.272ZM39.4905 39.808L40.8196 39.1128L40.8196 39.1128L39.4905 39.808ZM61.0585 19.008L60.2913 20.2969L60.3092 20.3076L60.3275 20.3178L61.0585 19.008ZM49.1545 18.944L48.4103 17.6416L48.4103 17.6416L49.1545 18.944ZM44.8665 23.424L46.1844 24.1403L46.1844 24.1403L44.8665 23.424ZM44.8665 37.376L43.5421 38.0804L43.5486 38.0923L44.8665 37.376ZM49.1545 41.92L48.3873 43.2089L48.3987 43.2158L48.4103 43.2224L49.1545 41.92ZM61.0585 41.92L61.8027 43.2224L61.8124 43.2168L61.0585 41.92ZM65.4105 37.376L66.7285 38.0923L66.7348 38.0804L65.4105 37.376ZM38.8145 30.336C38.8145 26.9575 39.4969 24.0744 40.8105 21.6404L38.1705 20.2156C36.5827 23.1576 35.8145 26.5465 35.8145 30.336H38.8145ZM40.8152 21.6317C42.1443 19.1298 43.9408 17.2269 46.2078 15.8821L44.6772 13.3019C41.9096 14.9437 39.738 17.2648 38.1658 20.2243L40.8152 21.6317ZM46.1983 15.8877C48.517 14.5351 51.0913 13.852 53.9545 13.852V10.852C50.5883 10.852 47.488 11.6623 44.6867 13.2963L46.1983 15.8877ZM53.9545 13.852C56.8067 13.852 59.2026 14.4641 61.1972 15.6308L62.7118 13.0412C60.1838 11.5625 57.2463 10.852 53.9545 10.852V13.852ZM61.1972 15.6308C63.2596 16.8371 64.737 18.317 65.698 20.0541L68.3231 18.6019C67.0653 16.3283 65.1721 14.4802 62.7118 13.0412L61.1972 15.6308ZM68.5105 19.328V12.928H65.5105V19.328H68.5105ZM67.0105 14.428H72.8985V11.428H67.0105V14.428ZM71.3985 12.928V48H74.3985V12.928H71.3985ZM72.8985 46.5H67.0105V49.5H72.8985V46.5ZM68.5105 48V41.472H65.5105V48H68.5105ZM65.7031 40.7366C64.6974 42.5246 63.1715 44.0514 61.0618 45.3016L62.5912 47.8824C65.0895 46.402 67.0196 44.5154 68.3179 42.2074L65.7031 40.7366ZM61.0692 45.2972C59.0715 46.4657 56.6958 47.076 53.8905 47.076V50.076C57.1438 50.076 60.0589 49.3636 62.5838 47.8868L61.0692 45.2972ZM53.8905 47.076C51.0353 47.076 48.4924 46.3758 46.2238 44.9915L44.6612 47.5525C47.4273 49.2402 50.5163 50.076 53.8905 50.076V47.076ZM46.2238 44.9915C43.9532 43.6061 42.1522 41.6603 40.8196 39.1128L38.1614 40.5032C39.7301 43.5023 41.8971 45.8659 44.6612 47.5525L46.2238 44.9915ZM40.8196 39.1128C39.4952 36.5808 38.8145 33.6674 38.8145 30.336H35.8145C35.8145 34.0873 36.5844 37.4885 38.1614 40.5032L40.8196 39.1128ZM68.5105 30.4C68.5105 27.5506 67.9348 24.9915 66.7284 22.7717L64.0926 24.2043C65.0195 25.9099 65.5105 27.9588 65.5105 30.4H68.5105ZM66.7284 22.7717C65.5352 20.5761 63.8879 18.8694 61.7896 17.6982L60.3275 20.3178C61.8984 21.1946 63.1525 22.4745 64.0926 24.2043L66.7284 22.7717ZM61.8257 17.7191C59.7913 16.5081 57.5403 15.908 55.1065 15.908V18.908C57.0247 18.908 58.7417 19.3745 60.2913 20.2969L61.8257 17.7191ZM55.1065 15.908C52.6842 15.908 50.4414 16.481 48.4103 17.6416L49.8987 20.2464C51.4516 19.359 53.1768 18.908 55.1065 18.908V15.908ZM48.4103 17.6416C46.3564 18.8153 44.7369 20.5211 43.5486 22.7077L46.1844 24.1403C47.1294 22.4015 48.3686 21.1207 49.8987 20.2464L48.4103 17.6416ZM43.5486 22.7077C42.3422 24.9275 41.7665 27.4866 41.7665 30.336H44.7665C44.7665 27.8948 45.2575 25.8459 46.1844 24.1403L43.5486 22.7077ZM41.7665 30.336C41.7665 33.2247 42.3407 35.8217 43.5422 38.0804L46.1908 36.6716C45.2589 34.9196 44.7665 32.8233 44.7665 30.336H41.7665ZM43.5486 38.0923C44.7345 40.2744 46.347 41.9945 48.3873 43.2089L49.9217 40.6311C48.378 39.7121 47.1318 38.403 46.1844 36.6597L43.5486 38.0923ZM48.4103 43.2224C50.4414 44.383 52.6842 44.956 55.1065 44.956V41.956C53.1768 41.956 51.4516 41.505 49.8987 40.6176L48.4103 43.2224ZM55.1065 44.956C57.5288 44.956 59.7716 44.383 61.8027 43.2224L60.3143 40.6176C58.7614 41.505 57.0362 41.956 55.1065 41.956V44.956ZM61.8124 43.2168C63.8975 42.0045 65.5377 40.2832 66.7284 38.0923L64.0926 36.6597C63.1499 38.3941 61.8889 39.7021 60.3046 40.6232L61.8124 43.2168ZM66.7348 38.0804C67.9345 35.825 68.5105 33.2504 68.5105 30.4H65.5105C65.5105 32.8403 65.0198 34.9163 64.0862 36.6716L66.7348 38.0804ZM110.197 16.192L109.144 17.2613L109.153 17.2699L110.197 16.192ZM114.165 48V49.5H115.665V48H114.165ZM108.405 48H106.905V49.5H108.405V48ZM105.781 20.16L104.683 21.1826L104.689 21.1889L104.695 21.1951L105.781 20.16ZM91.2525 20.224L90.168 19.1877L90.1619 19.1941L90.1559 19.2005L91.2525 20.224ZM88.5645 48V49.5H90.0645V48H88.5645ZM82.7405 48H81.2405V49.5H82.7405V48ZM82.7405 12.928V11.428H81.2405V12.928H82.7405ZM88.5645 12.928H90.0645V11.428H88.5645V12.928ZM88.5645 17.92H87.0645V23.0272L89.8263 18.7311L88.5645 17.92ZM93.2365 13.76L92.5771 12.4126L92.5657 12.4184L93.2365 13.76ZM99.8285 13.788C103.765 13.788 106.822 14.9763 109.145 17.2612L111.249 15.1228C108.28 12.2023 104.425 10.788 99.8285 10.788V13.788ZM109.153 17.2699C111.422 19.465 112.665 22.7343 112.665 27.328H115.665C115.665 22.1937 114.262 18.039 111.24 15.1141L109.153 17.2699ZM112.665 27.328V48H115.665V27.328H112.665ZM114.165 46.5H108.405V49.5H114.165V46.5ZM109.905 48V28.16H106.905V48H109.905ZM109.905 28.16C109.905 24.4243 108.969 21.3301 106.866 19.1249L104.695 21.1951C106.091 22.6592 106.905 24.8984 106.905 28.16H109.905ZM106.878 19.1374C104.794 16.9005 101.976 15.844 98.6125 15.844V18.844C101.307 18.844 103.269 19.6648 104.683 21.1826L106.878 19.1374ZM98.6125 15.844C95.2009 15.844 92.3307 16.9245 90.168 19.1877L92.337 21.2603C93.8437 19.6835 95.8801 18.844 98.6125 18.844V15.844ZM90.1559 19.2005C88.017 21.4922 87.0645 24.7104 87.0645 28.608H90.0645C90.0645 25.1669 90.904 22.7958 92.3491 21.2475L90.1559 19.2005ZM87.0645 28.608V48H90.0645V28.608H87.0645ZM88.5645 46.5H82.7405V49.5H88.5645V46.5ZM84.2405 48V12.928H81.2405V48H84.2405ZM82.7405 14.428H88.5645V11.428H82.7405V14.428ZM87.0645 12.928V17.92H90.0645V12.928H87.0645ZM89.8263 18.7311C90.828 17.1729 92.1781 15.9662 93.9073 15.1016L92.5657 12.4184C90.3695 13.5164 88.605 15.0831 87.3027 17.1089L89.8263 18.7311ZM93.8958 15.1073C95.6817 14.2334 97.6513 13.788 99.8285 13.788V10.788C97.227 10.788 94.802 11.3239 92.5772 12.4127L93.8958 15.1073ZM122.718 47.232L121.657 48.2927L121.657 48.2927L122.718 47.232ZM122.718 41.6L123.779 42.6607L123.779 42.6607L122.718 41.6ZM128.222 41.6L127.131 42.6299L127.146 42.6455L127.161 42.6607L128.222 41.6ZM128.222 47.232L127.161 46.1713L127.146 46.1865L127.131 46.2021L128.222 47.232ZM125.534 46.884C124.813 46.884 124.259 46.6514 123.779 46.1713L121.657 48.2927C122.713 49.3486 124.036 49.884 125.534 49.884V46.884ZM123.779 46.1713C123.299 45.6913 123.066 45.137 123.066 44.416H120.066C120.066 45.9136 120.601 47.2367 121.657 48.2927L123.779 46.1713ZM123.066 44.416C123.066 43.695 123.299 43.1407 123.779 42.6607L121.657 40.5393C120.601 41.5953 120.066 42.9184 120.066 44.416H123.066ZM123.779 42.6607C124.259 42.1806 124.813 41.948 125.534 41.948V38.948C124.036 38.948 122.713 39.4834 121.657 40.5393L123.779 42.6607ZM125.534 41.948C126.193 41.948 126.693 42.1653 127.131 42.6299L129.313 40.5701C128.301 39.4987 127.009 38.948 125.534 38.948V41.948ZM127.161 42.6607C127.641 43.1407 127.874 43.695 127.874 44.416H130.874C130.874 42.9184 130.339 41.5953 129.283 40.5393L127.161 42.6607ZM127.874 44.416C127.874 45.137 127.641 45.6913 127.161 46.1713L129.283 48.2927C130.339 47.2367 130.874 45.9136 130.874 44.416H127.874ZM127.131 46.2021C126.693 46.6667 126.193 46.884 125.534 46.884V49.884C127.009 49.884 128.301 49.3333 129.313 48.2619L127.131 46.2021ZM143.324 46.912L142.693 48.2732L142.708 48.2802L142.724 48.2868L143.324 46.912ZM137.884 42.56L136.657 43.4239L136.662 43.4306L136.667 43.4372L137.884 42.56ZM135.836 36.096V34.596H134.309L134.336 36.1223L135.836 36.096ZM142.044 36.096L143.536 35.9437L143.398 34.596H142.044V36.096ZM144.604 41.408L143.558 42.4839L143.574 42.4991L143.59 42.5137L144.604 41.408ZM157.788 41.472L158.769 42.6065L158.771 42.6045L157.788 41.472ZM158.812 31.936L157.685 32.9269L157.685 32.9269L158.812 31.936ZM155.292 29.504L154.742 30.8996L154.742 30.8996L155.292 29.504ZM149.596 27.712L149.984 26.263L149.974 26.2606L149.596 27.712ZM142.492 25.408L141.888 26.7815L141.901 26.7867L142.492 25.408ZM137.948 21.824L136.744 22.7191L136.757 22.7365L136.77 22.7535L137.948 21.824ZM137.948 8.704L139.2 9.52947L139.2 9.52947L137.948 8.704ZM143.132 4.352L142.513 2.98553L142.503 2.99006L143.132 4.352ZM161.116 5.952L160.185 7.12887L160.195 7.13603L161.116 5.952ZM165.66 14.272V15.772H167.315L167.152 14.1246L165.66 14.272ZM159.26 14.272L157.771 14.4581L157.935 15.772H159.26V14.272ZM156.572 9.792L155.608 10.9418L155.617 10.9495L155.627 10.9571L156.572 9.792ZM144.348 9.728L145.288 10.8961L145.298 10.8883L145.308 10.8803L144.348 9.728ZM143.388 18.944L142.259 19.9318L142.27 19.9448L142.282 19.9576L143.388 18.944ZM146.78 21.312L146.199 22.6953L146.226 22.7064L146.253 22.7165L146.78 21.312ZM152.476 23.104L152.07 24.5482L152.077 24.5502L152.476 23.104ZM159.58 25.536L158.961 26.9027L158.975 26.9088L158.989 26.9147L159.58 25.536ZM164.188 29.184L162.999 30.0986L163.004 30.1061L163.01 30.1135L164.188 29.184ZM164.38 41.984L165.666 42.7557L165.666 42.7557L164.38 41.984ZM159.26 46.656L158.559 45.3297L159.26 46.656ZM151.26 46.948C148.491 46.948 146.055 46.4672 143.923 45.5372L142.724 48.2868C145.286 49.4048 148.14 49.948 151.26 49.948V46.948ZM143.954 45.5508C141.854 44.5789 140.254 43.2838 139.1 41.6828L136.667 43.4372C138.158 45.5056 140.185 47.1118 142.693 48.2732L143.954 45.5508ZM139.11 41.6961C137.971 40.0791 137.373 38.2201 137.335 36.0697L134.336 36.1223C134.383 38.8359 135.151 41.2862 136.657 43.4239L139.11 41.6961ZM135.836 37.596H142.044V34.596H135.836V37.596ZM140.551 36.2483C140.8 38.6862 141.809 40.785 143.558 42.4839L145.649 40.3321C144.411 39.1297 143.714 37.6871 143.536 35.9437L140.551 36.2483ZM143.59 42.5137C145.495 44.2601 148.131 45.02 151.26 45.02V42.02C148.586 42.02 146.784 41.3719 145.617 40.3023L143.59 42.5137ZM151.26 45.02C154.273 45.02 156.839 44.2757 158.769 42.6065L156.806 40.3375C155.579 41.3989 153.792 42.02 151.26 42.02V45.02ZM158.771 42.6045C160.725 40.9073 161.72 38.6998 161.72 36.096H158.72C158.72 37.8442 158.092 39.2207 156.804 40.3394L158.771 42.6045ZM161.72 36.096C161.72 34.1016 161.164 32.3384 159.938 30.9451L157.685 32.9269C158.337 33.667 158.72 34.6771 158.72 36.096H161.72ZM159.938 30.9451C158.831 29.6881 157.456 28.7445 155.841 28.1084L154.742 30.8996C155.943 31.3729 156.914 32.0505 157.685 32.9269L159.938 30.9451ZM155.841 28.1084C154.358 27.5241 152.398 26.9098 149.984 26.2631L149.207 29.1609C151.572 29.7942 153.409 30.3746 154.742 30.8996L155.841 28.1084ZM149.974 26.2606C147.067 25.5023 144.779 24.7562 143.082 24.0293L141.901 26.7867C143.788 27.5958 146.236 28.3857 149.217 29.1634L149.974 26.2606ZM143.094 24.0345C141.588 23.3732 140.265 22.3391 139.125 20.8945L136.77 22.7535C138.19 24.5515 139.896 25.9068 141.889 26.7815L143.094 24.0345ZM139.151 20.9289C138.162 19.5986 137.592 17.7267 137.592 15.168H134.592C134.592 18.156 135.258 20.7214 136.744 22.7191L139.151 20.9289ZM137.592 15.168C137.592 13.0044 138.137 11.1417 139.2 9.52947L136.695 7.87853C135.283 10.021 134.592 12.4676 134.592 15.168H137.592ZM139.2 9.52947C140.27 7.90578 141.772 6.63131 143.76 5.71394L142.503 2.99006C140.053 4.12068 138.1 5.74755 136.695 7.87853L139.2 9.52947ZM143.75 5.71843C145.787 4.79609 148.152 4.316 150.876 4.316V1.316C147.796 1.316 144.999 1.85991 142.513 2.98557L143.75 5.71843ZM150.876 4.316C154.802 4.316 157.863 5.29372 160.185 7.12884L162.046 4.77516C159.077 2.42895 155.311 1.316 150.876 1.316V4.316ZM160.195 7.13603C162.551 8.96857 163.865 11.3636 164.167 14.4194L167.152 14.1246C166.771 10.2684 165.056 7.11676 162.036 4.76797L160.195 7.13603ZM165.66 12.772H159.26V15.772H165.66V12.772ZM160.748 14.0859C160.478 11.9263 159.337 10.1034 157.516 8.62687L155.627 10.9571C156.963 12.0406 157.614 13.2044 157.771 14.4581L160.748 14.0859ZM157.535 8.64222C155.621 7.03885 153.159 6.308 150.3 6.308V9.308C152.645 9.308 154.365 9.89981 155.608 10.9418L157.535 8.64222ZM150.3 6.308C147.595 6.308 145.248 7.02527 143.387 8.57566L145.308 10.8803C146.519 9.87072 148.14 9.308 150.3 9.308V6.308ZM143.407 8.55987C141.463 10.1258 140.544 12.3356 140.544 14.976H143.544C143.544 13.0937 144.16 11.8049 145.288 10.8961L143.407 8.55987ZM140.544 14.976C140.544 16.8875 141.079 18.5838 142.259 19.9318L144.516 17.9562C143.904 17.2562 143.544 16.3072 143.544 14.976H140.544ZM142.282 19.9576C143.372 21.1466 144.684 22.0596 146.199 22.6953L147.36 19.9287C146.23 19.4551 145.281 18.7894 144.493 17.9304L142.282 19.9576ZM146.253 22.7165C147.677 23.2504 149.622 23.861 152.07 24.5482L152.881 21.6598C150.465 20.9817 148.613 20.3976 147.306 19.9075L146.253 22.7165ZM152.077 24.5502C154.982 25.3501 157.268 26.1367 158.961 26.9027L160.198 24.1693C158.307 23.314 155.857 22.4792 152.874 21.6578L152.077 24.5502ZM158.989 26.9147C160.527 27.574 161.863 28.6218 162.999 30.0986L165.376 28.2694C163.952 26.4182 162.216 25.034 160.17 24.1573L158.989 26.9147ZM163.01 30.1135C164.017 31.3883 164.608 33.2398 164.608 35.84H167.608C167.608 32.8082 166.918 30.2223 165.365 28.2545L163.01 30.1135ZM164.608 35.84C164.608 37.736 164.11 39.5183 163.093 41.2123L165.666 42.7557C166.953 40.6097 167.608 38.296 167.608 35.84H164.608ZM163.093 41.2123C162.101 42.8655 160.613 44.2444 158.559 45.3297L159.96 47.9823C162.429 46.6783 164.354 44.9425 165.666 42.7557L163.093 41.2123ZM158.559 45.3297C156.553 46.3895 154.136 46.948 151.26 46.948V49.948C154.527 49.948 157.444 49.3118 159.96 47.9823L158.559 45.3297ZM199.254 14.016L198.541 15.3359L198.552 15.3414L198.562 15.3468L199.254 14.016ZM204.246 19.072L202.92 19.7727L202.925 19.7824L202.93 19.792L204.246 19.072ZM206.102 48V49.5H207.602V48H206.102ZM200.342 48H198.842V49.5H200.342V48ZM197.718 20.16L196.621 21.1826L196.626 21.1889L196.632 21.1951L197.718 20.16ZM183.19 20.224L182.106 19.1877L182.099 19.1941L182.093 19.2005L183.19 20.224ZM180.502 48V49.5H182.002V48H180.502ZM174.678 48H173.178V49.5H174.678V48ZM174.678 0.639999V-0.860001H173.178V0.639999H174.678ZM180.502 0.639999H182.002V-0.860001H180.502V0.639999ZM180.502 17.92H179.002V23.0272L181.764 18.7311L180.502 17.92ZM185.238 13.76L184.59 12.4072L184.579 12.4127L185.238 13.76ZM192.086 13.788C194.506 13.788 196.646 14.3126 198.541 15.3359L199.967 12.6961C197.595 11.4153 194.957 10.788 192.086 10.788V13.788ZM198.562 15.3468C200.407 16.3063 201.858 17.7629 202.92 19.7727L205.572 18.3713C204.245 15.8585 202.368 13.9444 199.946 12.6852L198.562 15.3468ZM202.93 19.792C204.019 21.7827 204.602 24.2733 204.602 27.328H207.602C207.602 23.8974 206.947 20.8839 205.562 18.352L202.93 19.792ZM204.602 27.328V48H207.602V27.328H204.602ZM206.102 46.5H200.342V49.5H206.102V46.5ZM201.842 48V28.16H198.842V48H201.842ZM201.842 28.16C201.842 24.4243 200.906 21.3301 198.804 19.1249L196.632 21.1951C198.028 22.6592 198.842 24.8984 198.842 28.16H201.842ZM198.815 19.1374C196.731 16.9005 193.914 15.844 190.55 15.844V18.844C193.245 18.844 195.206 19.6648 196.621 21.1826L198.815 19.1374ZM190.55 15.844C187.138 15.844 184.268 16.9245 182.106 19.1877L184.274 21.2603C185.781 19.6835 187.818 18.844 190.55 18.844V15.844ZM182.093 19.2005C179.955 21.4922 179.002 24.7104 179.002 28.608H182.002C182.002 25.1669 182.841 22.7958 184.287 21.2475L182.093 19.2005ZM179.002 28.608V48H182.002V28.608H179.002ZM180.502 46.5H174.678V49.5H180.502V46.5ZM176.178 48V0.639999H173.178V48H176.178ZM174.678 2.14H180.502V-0.860001H174.678V2.14ZM179.002 0.639999V17.92H182.002V0.639999H179.002ZM181.764 18.7311C182.76 17.1808 184.126 15.9743 185.897 15.1073L184.579 12.4127C182.34 13.5083 180.548 15.0752 179.24 17.1089L181.764 18.7311ZM185.886 15.1127C187.711 14.2384 189.768 13.788 192.086 13.788V10.788C189.369 10.788 186.861 11.3189 184.59 12.4073L185.886 15.1127ZM215.616 20.928L216.936 21.6404L216.94 21.6317L215.616 20.928ZM221.568 14.592L220.812 13.2963L220.802 13.3019L221.568 14.592ZM238.08 14.336L237.322 15.6308L237.322 15.6308L238.08 14.336ZM243.136 19.328L241.823 20.0541L244.636 19.328H243.136ZM243.136 12.928V11.428H241.636V12.928H243.136ZM249.024 12.928H250.524V11.428H249.024V12.928ZM249.024 48V49.5H250.524V48H249.024ZM243.136 48H241.636V49.5H243.136V48ZM243.136 41.472H244.636V35.7457L241.828 40.7366L243.136 41.472ZM237.952 46.592L238.709 47.8868L238.716 47.8824L237.952 46.592ZM221.568 46.272L220.786 47.5525L220.786 47.5525L221.568 46.272ZM215.616 39.808L216.945 39.1128L216.945 39.1128L215.616 39.808ZM237.184 19.008L236.416 20.2969L236.434 20.3076L236.452 20.3178L237.184 19.008ZM225.28 18.944L224.535 17.6416L224.535 17.6416L225.28 18.944ZM220.992 23.424L222.309 24.1403L222.309 24.1403L220.992 23.424ZM220.992 37.376L219.667 38.0804L219.674 38.0923L220.992 37.376ZM225.28 41.92L224.512 43.2089L224.524 43.2158L224.535 43.2224L225.28 41.92ZM237.184 41.92L237.928 43.2224L237.937 43.2168L237.184 41.92ZM241.536 37.376L242.853 38.0923L242.86 38.0804L241.536 37.376ZM214.94 30.336C214.94 26.9575 215.622 24.0744 216.936 21.6404L214.295 20.2156C212.708 23.1576 211.94 26.5465 211.94 30.336H214.94ZM216.94 21.6317C218.269 19.1298 220.066 17.2269 222.333 15.8821L220.802 13.3019C218.035 14.9437 215.863 17.2648 214.291 20.2243L216.94 21.6317ZM222.323 15.8877C224.642 14.5351 227.216 13.852 230.08 13.852V10.852C226.713 10.852 223.613 11.6623 220.812 13.2963L222.323 15.8877ZM230.08 13.852C232.932 13.852 235.328 14.4641 237.322 15.6308L238.837 13.0412C236.309 11.5625 233.371 10.852 230.08 10.852V13.852ZM237.322 15.6308C239.385 16.8371 240.862 18.317 241.823 20.0541L244.448 18.6019C243.19 16.3283 241.297 14.4802 238.837 13.0412L237.322 15.6308ZM244.636 19.328V12.928H241.636V19.328H244.636ZM243.136 14.428H249.024V11.428H243.136V14.428ZM247.524 12.928V48H250.524V12.928H247.524ZM249.024 46.5H243.136V49.5H249.024V46.5ZM244.636 48V41.472H241.636V48H244.636ZM241.828 40.7366C240.822 42.5246 239.297 44.0514 237.187 45.3016L238.716 47.8824C241.214 46.402 243.145 44.5154 244.443 42.2074L241.828 40.7366ZM237.194 45.2972C235.196 46.4657 232.821 47.076 230.016 47.076V50.076C233.269 50.076 236.184 49.3636 238.709 47.8868L237.194 45.2972ZM230.016 47.076C227.16 47.076 224.617 46.3758 222.349 44.9915L220.786 47.5525C223.552 49.2402 226.641 50.076 230.016 50.076V47.076ZM222.349 44.9915C220.078 43.6061 218.277 41.6603 216.945 39.1128L214.286 40.5032C215.855 43.5023 218.022 45.8659 220.786 47.5525L222.349 44.9915ZM216.945 39.1128C215.62 36.5808 214.94 33.6674 214.94 30.336H211.94C211.94 34.0873 212.709 37.4885 214.286 40.5032L216.945 39.1128ZM244.636 30.4C244.636 27.5506 244.06 24.9915 242.853 22.7717L240.218 24.2043C241.145 25.9099 241.636 27.9588 241.636 30.4H244.636ZM242.853 22.7717C241.66 20.5761 240.013 18.8694 237.915 17.6982L236.452 20.3178C238.023 21.1946 239.277 22.4745 240.218 24.2043L242.853 22.7717ZM237.951 17.7191C235.916 16.5081 233.665 15.908 231.232 15.908V18.908C233.15 18.908 234.867 19.3745 236.416 20.2969L237.951 17.7191ZM231.232 15.908C228.809 15.908 226.566 16.481 224.535 17.6416L226.024 20.2464C227.577 19.359 229.302 18.908 231.232 18.908V15.908ZM224.535 17.6416C222.481 18.8153 220.862 20.5211 219.674 22.7077L222.309 24.1403C223.254 22.4015 224.494 21.1207 226.024 20.2464L224.535 17.6416ZM219.674 22.7077C218.467 24.9275 217.892 27.4866 217.892 30.336H220.892C220.892 27.8948 221.382 25.8459 222.309 24.1403L219.674 22.7077ZM217.892 30.336C217.892 33.2247 218.466 35.8217 219.667 38.0804L222.316 36.6716C221.384 34.9196 220.892 32.8233 220.892 30.336H217.892ZM219.674 38.0923C220.859 40.2744 222.472 41.9945 224.512 43.2089L226.047 40.6311C224.503 39.7121 223.257 38.403 222.309 36.6597L219.674 38.0923ZM224.535 43.2224C226.566 44.383 228.809 44.956 231.232 44.956V41.956C229.302 41.956 227.577 41.505 226.024 40.6176L224.535 43.2224ZM231.232 44.956C233.654 44.956 235.897 44.383 237.928 43.2224L236.439 40.6176C234.886 41.505 233.161 41.956 231.232 41.956V44.956ZM237.937 43.2168C240.022 42.0045 241.663 40.2832 242.853 38.0923L240.218 36.6597C239.275 38.3941 238.014 39.7021 236.43 40.6232L237.937 43.2168ZM242.86 38.0804C244.059 35.825 244.636 33.2504 244.636 30.4H241.636C241.636 32.8403 241.145 34.9163 240.211 36.6716L242.86 38.0804ZM264.69 18.624H263.19L266.025 19.3062L264.69 18.624ZM269.042 13.952L268.291 12.6532L268.285 12.6569L268.278 12.6606L269.042 13.952ZM276.018 12.288H277.518V10.788H276.018V12.288ZM276.018 18.304V19.804H277.518V18.304H276.018ZM264.69 48V49.5H266.19V48H264.69ZM258.866 48H257.366V49.5H258.866V48ZM258.866 12.928V11.428H257.366V12.928H258.866ZM264.69 12.928H266.19V11.428H264.69V12.928ZM266.025 19.3062C266.925 17.5454 268.18 16.2032 269.805 15.2434L268.278 12.6606C266.148 13.9195 264.502 15.6919 263.354 17.9418L266.025 19.3062ZM269.792 15.2508C271.437 14.3006 273.49 13.788 276.018 13.788V10.788C273.084 10.788 270.486 11.3848 268.291 12.6532L269.792 15.2508ZM274.518 12.288V18.304H277.518V12.288H274.518ZM276.018 16.804H274.482V19.804H276.018V16.804ZM274.482 16.804C270.953 16.804 268.041 17.7666 266.035 19.9434C264.05 22.0971 263.19 25.1844 263.19 28.928H266.19C266.19 25.5889 266.961 23.3643 268.24 21.9766C269.498 20.612 271.482 19.804 274.482 19.804V16.804ZM263.19 28.928V48H266.19V28.928H263.19ZM264.69 46.5H258.866V49.5H264.69V46.5ZM260.366 48V12.928H257.366V48H260.366ZM258.866 14.428H264.69V11.428H258.866V14.428ZM263.19 12.928V18.624H266.19V12.928H263.19ZM282.741 20.928L284.061 21.6404L284.065 21.6317L282.741 20.928ZM288.693 14.592L287.937 13.2963L287.927 13.3019L288.693 14.592ZM304.885 14.272L304.166 15.5888L304.176 15.5939L304.185 15.5989L304.885 14.272ZM310.261 19.2L308.977 19.9757L311.761 24.5835V19.2H310.261ZM310.261 0.639999V-0.860001H308.761V0.639999H310.261ZM316.149 0.639999H317.649V-0.860001H316.149V0.639999ZM316.149 48V49.5H317.649V48H316.149ZM310.261 48H308.761V49.5H310.261V48ZM310.261 41.408H311.761L308.947 40.6841L310.261 41.408ZM305.141 46.592L305.898 47.8868L305.907 47.8815L305.916 47.8761L305.141 46.592ZM288.693 46.272L287.911 47.5525L287.921 47.5582L288.693 46.272ZM282.741 39.808L284.07 39.1128L284.07 39.1128L282.741 39.808ZM304.309 19.008L303.541 20.2969L303.559 20.3076L303.577 20.3178L304.309 19.008ZM292.405 18.944L291.66 17.6416L291.66 17.6416L292.405 18.944ZM288.117 23.424L289.434 24.1403L289.434 24.1403L288.117 23.424ZM288.117 37.376L286.792 38.0804L286.799 38.0923L288.117 37.376ZM292.405 41.92L291.637 43.2089L291.649 43.2158L291.66 43.2224L292.405 41.92ZM304.309 41.92L305.053 43.2224L305.062 43.2168L304.309 41.92ZM308.661 37.376L309.978 38.0923L309.985 38.0804L308.661 37.376ZM282.065 30.336C282.065 26.9575 282.747 24.0744 284.061 21.6404L281.42 20.2156C279.833 23.1576 279.065 26.5465 279.065 30.336H282.065ZM284.065 21.6317C285.394 19.1298 287.191 17.2269 289.458 15.8821L287.927 13.3019C285.16 14.9437 282.988 17.2648 281.416 20.2243L284.065 21.6317ZM289.448 15.8877C291.764 14.5369 294.359 13.852 297.269 13.852V10.852C293.864 10.852 290.741 11.6604 287.937 13.2963L289.448 15.8877ZM297.269 13.852C299.754 13.852 302.045 14.4317 304.166 15.5888L305.603 12.9552C303.031 11.5523 300.245 10.852 297.269 10.852V13.852ZM304.185 15.5989C306.317 16.7232 307.895 18.1859 308.977 19.9757L311.544 18.4243C310.151 16.1181 308.145 14.2954 305.584 12.9451L304.185 15.5989ZM311.761 19.2V0.639999H308.761V19.2H311.761ZM310.261 2.14H316.149V-0.860001H310.261V2.14ZM314.649 0.639999V48H317.649V0.639999H314.649ZM316.149 46.5H310.261V49.5H316.149V46.5ZM311.761 48V41.408H308.761V48H311.761ZM308.947 40.6841C307.935 42.52 306.426 44.0639 304.365 45.3079L305.916 47.8761C308.378 46.3895 310.282 44.4773 311.574 42.1319L308.947 40.6841ZM304.383 45.2972C302.385 46.4657 300.01 47.076 297.205 47.076V50.076C300.458 50.076 303.373 49.3636 305.898 47.8868L304.383 45.2972ZM297.205 47.076C294.349 47.076 291.781 46.3757 289.464 44.9858L287.921 47.5582C290.724 49.2403 293.83 50.076 297.205 50.076V47.076ZM289.474 44.9915C287.203 43.6061 285.402 41.6603 284.07 39.1128L281.411 40.5032C282.98 43.5023 285.147 45.8659 287.911 47.5525L289.474 44.9915ZM284.07 39.1128C282.745 36.5808 282.065 33.6674 282.065 30.336H279.065C279.065 34.0873 279.834 37.4885 281.411 40.5032L284.07 39.1128ZM311.761 30.4C311.761 27.5506 311.185 24.9915 309.978 22.7717L307.343 24.2043C308.27 25.9099 308.761 27.9588 308.761 30.4H311.761ZM309.978 22.7717C308.785 20.5761 307.138 18.8694 305.04 17.6982L303.577 20.3178C305.148 21.1946 306.402 22.4745 307.343 24.2043L309.978 22.7717ZM305.076 17.7191C303.041 16.5081 300.79 15.908 298.357 15.908V18.908C300.275 18.908 301.992 19.3745 303.541 20.2969L305.076 17.7191ZM298.357 15.908C295.934 15.908 293.691 16.481 291.66 17.6416L293.149 20.2464C294.702 19.359 296.427 18.908 298.357 18.908V15.908ZM291.66 17.6416C289.606 18.8153 287.987 20.5211 286.799 22.7077L289.434 24.1403C290.379 22.4015 291.619 21.1207 293.149 20.2464L291.66 17.6416ZM286.799 22.7077C285.592 24.9275 285.017 27.4866 285.017 30.336H288.017C288.017 27.8948 288.507 25.8459 289.434 24.1403L286.799 22.7077ZM285.017 30.336C285.017 33.2247 285.591 35.8217 286.792 38.0804L289.441 36.6716C288.509 34.9196 288.017 32.8233 288.017 30.336H285.017ZM286.799 38.0923C287.984 40.2744 289.597 41.9945 291.637 43.2089L293.172 40.6311C291.628 39.7121 290.382 38.403 289.434 36.6597L286.799 38.0923ZM291.66 43.2224C293.691 44.383 295.934 44.956 298.357 44.956V41.956C296.427 41.956 294.702 41.505 293.149 40.6176L291.66 43.2224ZM298.357 44.956C300.779 44.956 303.022 44.383 305.053 43.2224L303.564 40.6176C302.011 41.505 300.286 41.956 298.357 41.956V44.956ZM305.062 43.2168C307.147 42.0045 308.788 40.2832 309.978 38.0923L307.343 36.6597C306.4 38.3941 305.139 39.7021 303.555 40.6232L305.062 43.2168ZM309.985 38.0804C311.184 35.825 311.761 33.2504 311.761 30.4H308.761C308.761 32.8403 308.27 34.9163 307.336 36.6716L309.985 38.0804Z" fill="white" mask="url(#path-1-outside-1_632_30)"/>
</svg>
