<svg width="177" height="99" viewBox="0 0 177 99" fill="none" xmlns="http://www.w3.org/2000/svg">
<rect x="47" y="13" width="82" height="73" fill="black"/>
<path d="M101.043 53.712C100.872 53.7547 100.616 53.9893 100.275 54.416C99.9761 54.8427 99.7628 55.2907 99.6348 55.76C99.4214 56.4427 99.4854 56.9973 99.8268 57.424C100.723 58.4907 101.875 59.7493 103.283 61.2C104.691 62.608 106.099 63.952 107.507 65.232C108.957 66.512 110.195 67.4933 111.219 68.176C110.451 70.224 109.235 71.8667 107.571 73.104C105.949 74.2987 104.136 74.8747 102.131 74.832C100.125 74.7893 98.1628 73.8933 96.2428 72.144C95.9868 71.888 95.4961 71.3333 94.7708 70.48C94.0454 69.584 93.2134 68.5387 92.2748 67.344C91.3361 66.1493 90.3974 64.9547 89.4588 63.76C88.5201 62.5653 87.7094 61.52 87.0268 60.624C86.3441 59.728 85.9174 59.1733 85.7468 58.96C84.9361 57.8933 84.1681 57.6587 83.4428 58.256C82.7174 58.8533 82.2694 60.0907 82.0988 61.968C82.0134 63.0773 82.0134 64.3573 82.0988 65.808C82.2268 67.216 82.3974 68.4747 82.6108 69.584C82.8668 70.6933 83.1228 71.3547 83.3788 71.568C82.4828 72.2507 81.3734 72.8907 80.0508 73.488C78.7281 74.0853 77.2134 74.448 75.5068 74.576C74.8668 74.6187 74.1201 74.448 73.2668 74.064C72.4134 73.68 71.6668 73.0613 71.0268 72.208C70.4294 71.312 70.1094 70.2027 70.0668 68.88C70.0668 68.5387 70.0454 67.6427 70.0028 66.192C70.0028 64.7413 69.9814 62.9707 69.9388 60.88C69.9388 58.7467 69.9388 56.5493 69.9388 54.288C69.9388 52.0267 69.9174 49.8933 69.8748 47.888C69.8748 45.8827 69.8748 44.2613 69.8748 43.024C69.8748 41.7867 69.8748 41.168 69.8748 41.168C69.8748 38.6507 69.8108 36.56 69.6828 34.896C69.5548 33.1893 69.0428 31.888 68.1468 30.992C67.3361 30.1813 66.7174 29.008 66.2908 27.472C65.9068 25.936 65.7361 24.4853 65.7788 23.12C65.9494 23.1627 66.4614 23.2267 67.3148 23.312C68.1681 23.3547 69.0001 23.4187 69.8108 23.504C70.3654 23.504 71.1548 23.504 72.1788 23.504C73.2454 23.4613 74.3761 23.4187 75.5708 23.376C76.7654 23.3333 77.8748 23.312 78.8988 23.312C79.9228 23.2693 80.6908 23.2267 81.2028 23.184C81.5868 23.184 82.2908 23.184 83.3148 23.184C84.3814 23.1413 85.6188 23.12 87.0268 23.12C88.4348 23.12 89.8641 23.1413 91.3148 23.184C92.7654 23.184 94.1094 23.2267 95.3468 23.312C96.5841 23.3973 97.5441 23.504 98.2268 23.632C101.043 24.144 103.219 25.0827 104.755 26.448C106.291 27.8133 107.379 29.456 108.019 31.376C108.701 33.296 109.107 35.3867 109.235 37.648C109.32 39.568 109.107 41.5733 108.595 43.664C108.083 45.7547 107.208 47.696 105.971 49.488C104.733 51.28 103.091 52.688 101.043 53.712ZM82.2268 39.952C82.2268 41.3173 82.5468 42.3413 83.1868 43.024C83.8268 43.664 84.4241 44.048 84.9788 44.176C85.7468 44.3467 86.7281 44.368 87.9228 44.24C89.1174 44.0693 90.3121 43.7707 91.5068 43.344C92.7014 42.8747 93.7041 42.2773 94.5148 41.552C95.3681 40.8267 95.7948 39.9947 95.7948 39.056C95.7948 37.8187 95.2828 36.88 94.2588 36.24C93.2348 35.5573 91.9334 35.1307 90.3548 34.96C88.8188 34.7893 87.2828 34.832 85.7468 35.088C84.5521 35.2587 83.6561 35.792 83.0588 36.688C82.4614 37.584 82.1841 38.672 82.2268 39.952Z" fill="#9C4040"/>
</svg>
